<?xml version="1.0" standalone="no"?>
  <!DOCTYPE svg PUBLIC "-//W3C//DTD SVG 1.1//EN" "http://www.w3.org/Graphics/SVG/1.1/DTD/svg11.dtd" >
  <svg>
  <metadata>
  Created by font-carrier
  </metadata>
  <defs>
  <font id="Pollock1CTT-Regular" horiz-adv-x="65392" vert-adv-y="65392" >
    <font-face
      
      font-family="Pollock1CTT"
      
      font-weight="400"
      
      font-stretch="normal"
      
      units-per-em="1000"
      
      ascent="694"
      
      descent="-144"
      
    />
      <missing-glyph />

      

      
      <glyph glyph-name="uni21" unicode="&#x21;" d="M46 679L61 694L169 694L184 679L184 380L154 195Q151 180 143 180L87 180Q79 180 76 195L46 380L46 679M61 138L169 138Q184 138 184 123L184 15Q184 0 169 0L61 0Q46 0 46 15L46 123Q46 138 61 138Z"  horiz-adv-x="241" vert-adv-y="1000"  />

      
      <glyph glyph-name="uniF021" unicode="&#xF021;" d="M46 679L61 694L169 694L184 679L184 380L154 195Q151 180 143 180L87 180Q79 180 76 195L46 380L46 679M61 138L169 138Q184 138 184 123L184 15Q184 0 169 0L61 0Q46 0 46 15L46 123Q46 138 61 138Z"  horiz-adv-x="241" vert-adv-y="1000"  />

      
      <glyph glyph-name="uni22" unicode="&#x22;" d="M36 689L41 694L144 694L149 689L149 675L149 653Q135 454 133 452L123 442L61 442L51 452Q53 450 44.50 511Q36 572 36 675L36 689M226 689L231 694L334 694L339 689Q340 688 340 675Q340 658 339 653Q326 455 324 452L313 442L252 442L241 452Q243 450 240.50 465.50Q238 481 234.50 511Q231 541 228 582.50Q225 624 225 675Q225 688 226 689Z"  horiz-adv-x="380" vert-adv-y="1000"  />

      
      <glyph glyph-name="uniF022" unicode="&#xF022;" d="M36 689L41 694L144 694L149 689L149 675L149 653Q135 454 133 452L123 442L61 442L51 452Q53 450 44.50 511Q36 572 36 675L36 689M226 689L231 694L334 694L339 689Q340 688 340 675Q340 658 339 653Q326 455 324 452L313 442L252 442L241 452Q243 450 240.50 465.50Q238 481 234.50 511Q231 541 228 582.50Q225 624 225 675Q225 688 226 689Z"  horiz-adv-x="380" vert-adv-y="1000"  />

      
      <glyph glyph-name="uni23" unicode="&#x23;" d="M195 684L205 694L267 694Q278 694 278 675Q278 666 277 663Q270 611 265 572.50Q260 534 257 509Q258 504 258 494L353 494L380 684L391 694L452 694Q463 694 463 677L463 669Q456 616 450.50 575.50Q445 535 442 509Q443 504 443 500Q443 496 443 491L514 491L519 483Q520 480 520 462Q520 436 519 432Q517 409 504 409L432 409L427 396Q427 397 419.50 365.50Q412 334 412 285L488 285Q494 285 494 263Q494 238 489 220.50Q484 203 473 203L401 203L375 25Q372 0 360 0L303 0L293 5Q292 6 292 23Q292 33 292 40Q292 47 293 51Q300 106 303.50 136Q307 166 307 200L216 200Q210 156 203.50 112.50Q197 69 190 25Q186 0 174 0L118 0L108 5Q107 6 107 21Q107 64 114 104Q121 144 123 164Q122 174 121.50 183.50Q121 193 121 203L46 203Q36 203 36 221Q36 226 37 236.50Q38 247 40 257.50Q42 268 46 276.50Q50 285 56 285L138 285Q138 285 145 319.50Q152 354 152 409L77 409Q66 409 66 435Q66 459 71 475Q76 491 87 491L167 491L195 684M226 288L324 288Q320 288 330 319Q340 350 340 406L247 406Q244 406 241 391Q238 376 235 356.50Q232 337 229.50 317.50Q227 298 226 288Z"  horiz-adv-x="561" vert-adv-y="1000"  />

      
      <glyph glyph-name="uniF023" unicode="&#xF023;" d="M195 684L205 694L267 694Q278 694 278 675Q278 666 277 663Q270 611 265 572.50Q260 534 257 509Q258 504 258 494L353 494L380 684L391 694L452 694Q463 694 463 677L463 669Q456 616 450.50 575.50Q445 535 442 509Q443 504 443 500Q443 496 443 491L514 491L519 483Q520 480 520 462Q520 436 519 432Q517 409 504 409L432 409L427 396Q427 397 419.50 365.50Q412 334 412 285L488 285Q494 285 494 263Q494 238 489 220.50Q484 203 473 203L401 203L375 25Q372 0 360 0L303 0L293 5Q292 6 292 23Q292 33 292 40Q292 47 293 51Q300 106 303.50 136Q307 166 307 200L216 200Q210 156 203.50 112.50Q197 69 190 25Q186 0 174 0L118 0L108 5Q107 6 107 21Q107 64 114 104Q121 144 123 164Q122 174 121.50 183.50Q121 193 121 203L46 203Q36 203 36 221Q36 226 37 236.50Q38 247 40 257.50Q42 268 46 276.50Q50 285 56 285L138 285Q138 285 145 319.50Q152 354 152 409L77 409Q66 409 66 435Q66 459 71 475Q76 491 87 491L167 491L195 684M226 288L324 288Q320 288 330 319Q340 350 340 406L247 406Q244 406 241 391Q238 376 235 356.50Q232 337 229.50 317.50Q227 298 226 288Z"  horiz-adv-x="561" vert-adv-y="1000"  />

      
      <glyph glyph-name="uni24" unicode="&#x24;" d="M177 679L177 736Q177 746 195 746L267 746Q285 746 285 736L285 679Q350 672 375 658Q386 653 386 648L386 545Q386 540 373 540Q354 540 338.50 543.50Q323 547 309.50 550.50Q296 554 283 557.50Q270 561 254 561L221 561Q179 558 179 516Q179 499 192.50 483.50Q206 468 224.50 454.50Q243 441 262.50 429.50Q282 418 293 411Q306 403 316 395Q326 387 334 380Q427 298 427 197Q427 80 319 30Q290 17 288 15Q288 9 287.50-3Q287-15 285.50-26.50Q284-38 282-47Q280-56 277-56L185-56Q182-56 180.50-48Q179-40 177.50-29Q176-18 175-7Q174 4 174 10Q161 11 139.50 12Q118 13 97 16.50Q76 20 61 25.50Q46 31 46 41L46 144Q46 149 64 149Q80 149 95 144.50Q110 140 118 138Q146 133 183 133Q229 133 256 148.50Q283 164 283 203Q283 225 265.50 245.50Q248 266 225 284Q202 302 179 316.50Q156 331 144 339Q133 347 121 356Q109 365 97 375Q36 427 36 509Q36 642 177 679Z"  horiz-adv-x="463" vert-adv-y="1000"  />

      
      <glyph glyph-name="uniF024" unicode="&#xF024;" d="M177 679L177 736Q177 746 195 746L267 746Q285 746 285 736L285 679Q350 672 375 658Q386 653 386 648L386 545Q386 540 373 540Q354 540 338.50 543.50Q323 547 309.50 550.50Q296 554 283 557.50Q270 561 254 561L221 561Q179 558 179 516Q179 499 192.50 483.50Q206 468 224.50 454.50Q243 441 262.50 429.50Q282 418 293 411Q306 403 316 395Q326 387 334 380Q427 298 427 197Q427 80 319 30Q290 17 288 15Q288 9 287.50-3Q287-15 285.50-26.50Q284-38 282-47Q280-56 277-56L185-56Q182-56 180.50-48Q179-40 177.50-29Q176-18 175-7Q174 4 174 10Q161 11 139.50 12Q118 13 97 16.50Q76 20 61 25.50Q46 31 46 41L46 144Q46 149 64 149Q80 149 95 144.50Q110 140 118 138Q146 133 183 133Q229 133 256 148.50Q283 164 283 203Q283 225 265.50 245.50Q248 266 225 284Q202 302 179 316.50Q156 331 144 339Q133 347 121 356Q109 365 97 375Q36 427 36 509Q36 642 177 679Z"  horiz-adv-x="463" vert-adv-y="1000"  />

      
      <glyph glyph-name="uni25" unicode="&#x25;" d="M65 7Q65 14 66 15L446 700Q449 705 462 705Q504 705 504 673Q504 664 503 663L138 5Q120-26 107-26Q65-26 65 7M30 522Q30 554 31.50 579Q33 604 35 622Q47 700 135 700Q223 700 235 622Q241 586 241 522Q241 458 235 422Q223 344 135 344Q47 344 35 422Q33 440 31.50 465Q30 490 30 522M135 426Q153 426 153 447L153 597Q153 618 135 618Q117 618 117 597L117 447Q117 426 135 426M333 167Q333 199 334.50 224Q336 249 338 267Q350 345 439 345Q527 345 539 267Q545 231 545 167Q545 104 539 66Q527-10 439-10Q396-10 369.50 9Q343 28 338 66Q336 85 334.50 110Q333 135 333 167M439 71Q457 71 457 92L457 241Q457 262 439 262Q421 262 421 241L421 92Q421 71 439 71Z"  horiz-adv-x="581" vert-adv-y="1000"  />

      
      <glyph glyph-name="uniF025" unicode="&#xF025;" d="M65 7Q65 14 66 15L446 700Q449 705 462 705Q504 705 504 673Q504 664 503 663L138 5Q120-26 107-26Q65-26 65 7M30 522Q30 554 31.50 579Q33 604 35 622Q47 700 135 700Q223 700 235 622Q241 586 241 522Q241 458 235 422Q223 344 135 344Q47 344 35 422Q33 440 31.50 465Q30 490 30 522M135 426Q153 426 153 447L153 597Q153 618 135 618Q117 618 117 597L117 447Q117 426 135 426M333 167Q333 199 334.50 224Q336 249 338 267Q350 345 439 345Q527 345 539 267Q545 231 545 167Q545 104 539 66Q527-10 439-10Q396-10 369.50 9Q343 28 338 66Q336 85 334.50 110Q333 135 333 167M439 71Q457 71 457 92L457 241Q457 262 439 262Q421 262 421 241L421 92Q421 71 439 71Z"  horiz-adv-x="581" vert-adv-y="1000"  />

      
      <glyph glyph-name="uni26" unicode="&#x26;" d="M76 545Q76 671 184 700Q195 702 209 703.50Q223 705 240 705Q320 705 369 684Q375 682 375 679L375 586Q375 575 355 575Q338 575 321.50 580Q305 585 297 586Q294 587 271 587Q209 587 209 533Q209 484 246 422Q324 286 328 283L346 267L346 360Q346 375 364 375L452 375Q460 375 463.50 367Q467 359 468 348Q469 337 468.50 325.50Q468 314 468 306Q468 257 467 252Q467 238 463.50 221.50Q460 205 456.50 189Q453 173 449.50 159.50Q446 146 446 138Q446 125 454 121Q462 117 472 115.50Q482 114 490 112.50Q498 111 498 102L498 5Q498-2 493-5.50Q488-9 481-10Q474-11 466.50-10.50Q459-10 454-10Q435-10 421.50-5Q408 0 397.50 5.50Q387 11 379.50 16Q372 21 364 21Q354 21 340.50 13.50Q327 6 323 5Q300-4 275-7Q250-10 222-10Q68-10 35 128Q25 172 25 217Q25 324 112 416L112 432Q105 445 98.50 457.50Q92 470 86 483Q76 504 76 545M179 288Q163 263 163 216Q163 170 180.50 138.50Q198 107 239 107Q277 107 277 120Q277 116 266 141.50Q255 167 239.50 199.50Q224 232 207.50 260Q191 288 181 288L179 288Z"  horiz-adv-x="525" vert-adv-y="1000"  />

      
      <glyph glyph-name="uniF026" unicode="&#xF026;" d="M76 545Q76 671 184 700Q195 702 209 703.50Q223 705 240 705Q320 705 369 684Q375 682 375 679L375 586Q375 575 355 575Q338 575 321.50 580Q305 585 297 586Q294 587 271 587Q209 587 209 533Q209 484 246 422Q324 286 328 283L346 267L346 360Q346 375 364 375L452 375Q460 375 463.50 367Q467 359 468 348Q469 337 468.50 325.50Q468 314 468 306Q468 257 467 252Q467 238 463.50 221.50Q460 205 456.50 189Q453 173 449.50 159.50Q446 146 446 138Q446 125 454 121Q462 117 472 115.50Q482 114 490 112.50Q498 111 498 102L498 5Q498-2 493-5.50Q488-9 481-10Q474-11 466.50-10.50Q459-10 454-10Q435-10 421.50-5Q408 0 397.50 5.50Q387 11 379.50 16Q372 21 364 21Q354 21 340.50 13.50Q327 6 323 5Q300-4 275-7Q250-10 222-10Q68-10 35 128Q25 172 25 217Q25 324 112 416L112 432Q105 445 98.50 457.50Q92 470 86 483Q76 504 76 545M179 288Q163 263 163 216Q163 170 180.50 138.50Q198 107 239 107Q277 107 277 120Q277 116 266 141.50Q255 167 239.50 199.50Q224 232 207.50 260Q191 288 181 288L179 288Z"  horiz-adv-x="525" vert-adv-y="1000"  />

      
      <glyph glyph-name="uni27" unicode="&#x27;" d="M36 689L41 694L144 694L149 689L149 675L149 653Q135 454 133 452L123 442L61 442L51 452Q48 455 36 653L36 675L36 689Z"  horiz-adv-x="195" vert-adv-y="1000"  />

      
      <glyph glyph-name="uniF027" unicode="&#xF027;" d="M36 689L41 694L144 694L149 689L149 675L149 653Q135 454 133 452L123 442L61 442L51 452Q48 455 36 653L36 675L36 689Z"  horiz-adv-x="195" vert-adv-y="1000"  />

      
      <glyph glyph-name="uni28" unicode="&#x28;" d="M46 293Q46 401 82 488Q140 630 251 694Q277 710 285 710Q293 710 293 705L293 586Q293 584 287 576Q266 552 257 540Q248 531 241 519Q226 496 215 473Q179 390 179 290Q179 218 195 164Q216 91 257 41Q278 17 287 5Q293-1 293-5L293-123Q293-128 285-128Q278-128 251-113Q228-100 221-92Q208-80 189.50-62Q171-44 148-20Q112 18 82 92Q46 180 46 293Z"  horiz-adv-x="350" vert-adv-y="1000"  />

      
      <glyph glyph-name="uniF028" unicode="&#xF028;" d="M46 293Q46 401 82 488Q140 630 251 694Q277 710 285 710Q293 710 293 705L293 586Q293 584 287 576Q266 552 257 540Q248 531 241 519Q226 496 215 473Q179 390 179 290Q179 218 195 164Q216 91 257 41Q278 17 287 5Q293-1 293-5L293-123Q293-128 285-128Q278-128 251-113Q228-100 221-92Q208-80 189.50-62Q171-44 148-20Q112 18 82 92Q46 180 46 293Z"  horiz-adv-x="350" vert-adv-y="1000"  />

      
      <glyph glyph-name="uni29" unicode="&#x29;" d="M159 290Q159 362 143 416Q121 492 82 540Q71 552 63.50 561Q56 570 51 576Q46 584 46 586L46 705Q46 710 53 710Q61 710 87 694Q98 687 106 682.50Q114 678 118 674Q144 650 190 602Q209 582 226 550Q236 531 244 516Q252 501 257 488Q293 401 293 290Q293 180 257 92Q198-48 87-113Q60-128 53-128Q46-128 46-123L46-5Q46-2 51 5Q62 17 69.50 26Q77 35 82 41Q101 64 118 97Q159 181 159 290Z"  horiz-adv-x="350" vert-adv-y="1000"  />

      
      <glyph glyph-name="uniF029" unicode="&#xF029;" d="M159 290Q159 362 143 416Q121 492 82 540Q71 552 63.50 561Q56 570 51 576Q46 584 46 586L46 705Q46 710 53 710Q61 710 87 694Q98 687 106 682.50Q114 678 118 674Q144 650 190 602Q209 582 226 550Q236 531 244 516Q252 501 257 488Q293 401 293 290Q293 180 257 92Q198-48 87-113Q60-128 53-128Q46-128 46-123L46-5Q46-2 51 5Q62 17 69.50 26Q77 35 82 41Q101 64 118 97Q159 181 159 290Z"  horiz-adv-x="350" vert-adv-y="1000"  />

      
      <glyph glyph-name="uni2a" unicode="&#x2a;" d="M174 677Q174 694 185 694L246 694Q257 694 257 672L257 663Q255 643 254 627.50Q253 612 252 602Q251 600 251 590Q251 576 262 576L267 576Q299 599 329 617Q346 628 354 628Q364 628 380 597Q391 577 391 568Q391 558 385 555L298 509Q297 509 297 505Q297 494 308 488L380 452Q391 447 391 435Q391 426 385 416Q378 402 372.50 393Q367 384 365 380Q360 375 352 375L344 375Q328 387 311 399Q294 411 277 422Q272 425 267 427.50Q262 430 257 432Q251 430 251 418Q251 408 252 406Q254 380 255 361Q256 342 257 329L257 326Q257 308 246 308L185 308Q174 308 174 324L174 425Q160 425 154 422Q134 408 118 397.50Q102 387 92 380Q84 375 79 375Q71 375 61 391Q41 425 41 437Q41 444 46 447L128 494Q134 497 134 505Q134 509 133 509L46 555Q41 558 41 566Q41 578 61 612Q71 628 81 628Q90 628 97 622Q133 598 164 576L169 576Q180 576 180 590Q180 600 179 602Q178 626 176.50 644Q175 662 174 674L174 677Z"  horiz-adv-x="432" vert-adv-y="1000"  />

      
      <glyph glyph-name="uniF02A" unicode="&#xF02A;" d="M174 677Q174 694 185 694L246 694Q257 694 257 672L257 663Q255 643 254 627.50Q253 612 252 602Q251 600 251 590Q251 576 262 576L267 576Q299 599 329 617Q346 628 354 628Q364 628 380 597Q391 577 391 568Q391 558 385 555L298 509Q297 509 297 505Q297 494 308 488L380 452Q391 447 391 435Q391 426 385 416Q378 402 372.50 393Q367 384 365 380Q360 375 352 375L344 375Q328 387 311 399Q294 411 277 422Q272 425 267 427.50Q262 430 257 432Q251 430 251 418Q251 408 252 406Q254 380 255 361Q256 342 257 329L257 326Q257 308 246 308L185 308Q174 308 174 324L174 425Q160 425 154 422Q134 408 118 397.50Q102 387 92 380Q84 375 79 375Q71 375 61 391Q41 425 41 437Q41 444 46 447L128 494Q134 497 134 505Q134 509 133 509L46 555Q41 558 41 566Q41 578 61 612Q71 628 81 628Q90 628 97 622Q133 598 164 576L169 576Q180 576 180 590Q180 600 179 602Q178 626 176.50 644Q175 662 174 674L174 677Z"  horiz-adv-x="432" vert-adv-y="1000"  />

      
      <glyph glyph-name="uni2b" unicode="&#x2b;" d="M61 393L208 393L208 545Q208 561 226 561L282 561Q300 561 300 545L300 393L447 393Q462 393 462 375L462 313Q462 295 447 295L300 295L300 144Q300 128 282 128L226 128Q208 128 208 144L208 295L61 295Q46 295 46 313L46 375Q46 393 61 393Z"  horiz-adv-x="519" vert-adv-y="1000"  />

      
      <glyph glyph-name="uniF02B" unicode="&#xF02B;" d="M61 393L208 393L208 545Q208 561 226 561L282 561Q300 561 300 545L300 393L447 393Q462 393 462 375L462 313Q462 295 447 295L300 295L300 144Q300 128 282 128L226 128Q208 128 208 144L208 295L61 295Q46 295 46 313L46 375Q46 393 61 393Z"  horiz-adv-x="519" vert-adv-y="1000"  />

      
      <glyph glyph-name="uni2c" unicode="&#x2c;" d="M97-5Q89-4 81.50-3Q74-2 66 0Q51 3 51 15L51 123Q51 138 66 138L169 138Q184 138 184 123L184-20Q184-57 138-97Q115-119 70-119Q57-119 56-118L51-113L51-66Q51-64 56-61Q97-40 97-18L97-5Z"  horiz-adv-x="236" vert-adv-y="1000"  />

      
      <glyph glyph-name="uniF02C" unicode="&#xF02C;" d="M97-5Q89-4 81.50-3Q74-2 66 0Q51 3 51 15L51 123Q51 138 66 138L169 138Q184 138 184 123L184-20Q184-57 138-97Q115-119 70-119Q57-119 56-118L51-113L51-66Q51-64 56-61Q97-40 97-18L97-5Z"  horiz-adv-x="236" vert-adv-y="1000"  />

      
      <glyph glyph-name="uni2d" unicode="&#x2d;" d="M56 350L262 350Q277 350 277 334L277 252Q277 236 262 236L56 236Q41 236 41 252L41 334Q41 350 56 350Z"  horiz-adv-x="319" vert-adv-y="1000"  />

      
      <glyph glyph-name="uniF02D" unicode="&#xF02D;" d="M56 350L262 350Q277 350 277 334L277 252Q277 236 262 236L56 236Q41 236 41 252L41 334Q41 350 56 350Z"  horiz-adv-x="319" vert-adv-y="1000"  />

      
      <glyph glyph-name="uni2e" unicode="&#x2e;" d="M66 138L169 138Q184 138 184 123L184 15Q184 0 169 0L66 0Q51 0 51 15L51 123Q51 138 66 138Z"  horiz-adv-x="236" vert-adv-y="1000"  />

      
      <glyph glyph-name="uniF02E" unicode="&#xF02E;" d="M66 138L169 138Q184 138 184 123L184 15Q184 0 169 0L66 0Q51 0 51 15L51 123Q51 138 66 138Z"  horiz-adv-x="236" vert-adv-y="1000"  />

      
      <glyph glyph-name="uni2f" unicode="&#x2f;" d="M0-118Q0-103 10-82L375 694Q382 710 396 710Q443 710 443 675Q443 660 437 648L66-144Q62-154 41-154Q0-154 0-118Z"  horiz-adv-x="447" vert-adv-y="1000"  />

      
      <glyph glyph-name="uniF02F" unicode="&#xF02F;" d="M0-118Q0-103 10-82L375 694Q382 710 396 710Q443 710 443 675Q443 660 437 648L66-144Q62-154 41-154Q0-154 0-118Z"  horiz-adv-x="447" vert-adv-y="1000"  />

      
      <glyph glyph-name="uni30" unicode="&#x30;" d="M220-10Q177-10 138 5Q30 48 30 164L30 530Q30 646 138 689Q176 705 220 705Q264 705 302 689Q410 646 410 530L410 164Q410 48 302 5Q263-10 220-10M220 112Q266 112 266 149L266 545Q266 582 220 582Q174 582 174 540L174 154Q174 112 220 112Z"  horiz-adv-x="447" vert-adv-y="1000"  />

      
      <glyph glyph-name="uniF030" unicode="&#xF030;" d="M220-10Q177-10 138 5Q30 48 30 164L30 530Q30 646 138 689Q176 705 220 705Q264 705 302 689Q410 646 410 530L410 164Q410 48 302 5Q263-10 220-10M220 112Q266 112 266 149L266 545Q266 582 220 582Q174 582 174 540L174 154Q174 112 220 112Z"  horiz-adv-x="447" vert-adv-y="1000"  />

      
      <glyph glyph-name="uni31" unicode="&#x31;" d="M141 499L133 506L25 506Q10 506 10 525L10 602Q10 616 25 617Q44 618 58 619Q72 620 82 622Q124 629 159 669Q181 694 185 694L267 694L282 679L282 20Q282 0 267 0L159 0L141 15L141 499Z"  horiz-adv-x="324" vert-adv-y="1000"  />

      
      <glyph glyph-name="uniF031" unicode="&#xF031;" d="M141 499L133 506L25 506Q10 506 10 525L10 602Q10 616 25 617Q44 618 58 619Q72 620 82 622Q124 629 159 669Q181 694 185 694L267 694L282 679L282 20Q282 0 267 0L159 0L141 15L141 499Z"  horiz-adv-x="324" vert-adv-y="1000"  />

      
      <glyph glyph-name="uni32" unicode="&#x32;" d="M25 512Q25 551 30 576Q52 664 138 694Q169 705 213 705Q348 705 395 591Q411 555 411 496Q411 386 349 329Q332 313 318.50 301.50Q305 290 297 283Q278 265 263 249.50Q248 234 236 221Q195 177 195 115L390 115L405 97L405 15L390 0L45 0Q37 0 30 10Q29 18 29 26.50Q29 35 29 43Q29 93 45 128Q52 144 60 159Q68 174 76 190Q92 218 127 262Q164 305 191 337Q218 369 236 391Q267 428 267 502Q267 536 261 550Q246 587 211 587Q164 587 158 545Q156 528 155 511.50Q154 495 153 478Q147 458 138 458L40 458Q31 458 25 478L25 512Z"  horiz-adv-x="442" vert-adv-y="1000"  />

      
      <glyph glyph-name="uniF032" unicode="&#xF032;" d="M25 512Q25 551 30 576Q52 664 138 694Q169 705 213 705Q348 705 395 591Q411 555 411 496Q411 386 349 329Q332 313 318.50 301.50Q305 290 297 283Q278 265 263 249.50Q248 234 236 221Q195 177 195 115L390 115L405 97L405 15L390 0L45 0Q37 0 30 10Q29 18 29 26.50Q29 35 29 43Q29 93 45 128Q52 144 60 159Q68 174 76 190Q92 218 127 262Q164 305 191 337Q218 369 236 391Q267 428 267 502Q267 536 261 550Q246 587 211 587Q164 587 158 545Q156 528 155 511.50Q154 495 153 478Q147 458 138 458L40 458Q31 458 25 478L25 512Z"  horiz-adv-x="442" vert-adv-y="1000"  />

      
      <glyph glyph-name="uni33" unicode="&#x33;" d="M50 561Q50 661 143 694Q174 705 213 705Q395 705 395 524Q395 446 328 380L328 375Q328 364 343 350Q360 338 364 334Q372 327 378.50 320.50Q385 314 390 308Q402 295 405 252Q406 249 406 216Q406 157 395 118Q357-10 209-10Q175-10 153-5Q57 21 35 108Q30 130 30 172L30 211Q32 226 45 226L138 226Q152 226 153 211Q154 194 155 177Q156 160 158 144Q162 107 204 107Q260 107 261 159Q262 162 262 203Q262 247 256 267Q243 316 215 316L143 316Q127 316 127 339L127 406Q127 429 143 429L215 429Q217 429 225 437Q236 447 242.50 455Q249 463 251 468Q256 486 256 517Q256 587 208 587Q174 587 168 561Q166 533 163 525Q160 514 153 514L60 514Q56 514 50 530L50 561Z"  horiz-adv-x="437" vert-adv-y="1000"  />

      
      <glyph glyph-name="uniF033" unicode="&#xF033;" d="M50 561Q50 661 143 694Q174 705 213 705Q395 705 395 524Q395 446 328 380L328 375Q328 364 343 350Q360 338 364 334Q372 327 378.50 320.50Q385 314 390 308Q402 295 405 252Q406 249 406 216Q406 157 395 118Q357-10 209-10Q175-10 153-5Q57 21 35 108Q30 130 30 172L30 211Q32 226 45 226L138 226Q152 226 153 211Q154 194 155 177Q156 160 158 144Q162 107 204 107Q260 107 261 159Q262 162 262 203Q262 247 256 267Q243 316 215 316L143 316Q127 316 127 339L127 406Q127 429 143 429L215 429Q217 429 225 437Q236 447 242.50 455Q249 463 251 468Q256 486 256 517Q256 587 208 587Q174 587 168 561Q166 533 163 525Q160 514 153 514L60 514Q56 514 50 530L50 561Z"  horiz-adv-x="437" vert-adv-y="1000"  />

      
      <glyph glyph-name="uni34" unicode="&#x34;" d="M226 674L246 694L339 694Q362 694 362 679L362 272Q411 269 411 252L411 180Q411 171 395 164Q380 157 362 159L362 15Q362 0 339 0L251 0Q228 0 228 15L228 162L30 162Q15 162 15 185L15 267L226 674M226 272L226 437L220 432L143 272L226 272Z"  horiz-adv-x="422" vert-adv-y="1000"  />

      
      <glyph glyph-name="uniF034" unicode="&#xF034;" d="M226 674L246 694L339 694Q362 694 362 679L362 272Q411 269 411 252L411 180Q411 171 395 164Q380 157 362 159L362 15Q362 0 339 0L251 0Q228 0 228 15L228 162L30 162Q15 162 15 185L15 267L226 674M226 272L226 437L220 432L143 272L226 272Z"  horiz-adv-x="422" vert-adv-y="1000"  />

      
      <glyph glyph-name="uni35" unicode="&#x35;" d="M99 359Q66 359 66 375L66 679Q66 694 81 694L349 694L364 679L364 597Q364 579 343 579L199 579L199 488L210 483Q248 485 287 483Q289 483 307 478Q410 450 410 329L410 159Q410 74 338 20Q300-7 246-10L212-10Q175-10 153-5Q57 21 35 113Q30 138 30 182L30 221Q39 236 55 236L132 236Q149 236 158 221Q159 202 160 182.50Q161 163 163 144Q167 107 210 107Q266 107 266 159L266 303Q266 320 251 339Q227 371 187 371Q166 371 163 370Q148 366 136.50 363.50Q125 361 117 360Q115 359 99 359Z"  horiz-adv-x="442" vert-adv-y="1000"  />

      
      <glyph glyph-name="uniF035" unicode="&#xF035;" d="M99 359Q66 359 66 375L66 679Q66 694 81 694L349 694L364 679L364 597Q364 579 343 579L199 579L199 488L210 483Q248 485 287 483Q289 483 307 478Q410 450 410 329L410 159Q410 74 338 20Q300-7 246-10L212-10Q175-10 153-5Q57 21 35 113Q30 138 30 182L30 221Q39 236 55 236L132 236Q149 236 158 221Q159 202 160 182.50Q161 163 163 144Q167 107 210 107Q266 107 266 159L266 303Q266 320 251 339Q227 371 187 371Q166 371 163 370Q148 366 136.50 363.50Q125 361 117 360Q115 359 99 359Z"  horiz-adv-x="442" vert-adv-y="1000"  />

      
      <glyph glyph-name="uni36" unicode="&#x36;" d="M214-10Q159-10 138 0Q30 50 30 164L30 525Q30 642 127 684Q172 704 205 705L251 705L297 705Q309 704 322 701.50Q335 699 349 694Q374 687 374 674L374 576L369 571Q368 570 355 570Q330 570 313 576Q278 587 260 587Q179 587 174 519Q175 503 175.50 487Q176 471 176 454Q184 454 205 463Q207 464 211 465Q215 466 220 468Q242 473 263 473Q306 473 343 452Q405 417 405 344L405 144Q405 39 292 0Q262-10 214-10M220 107Q266 107 266 144L266 308Q266 345 220 345Q174 345 174 308L174 144Q174 107 220 107Z"  horiz-adv-x="442" vert-adv-y="1000"  />

      
      <glyph glyph-name="uniF036" unicode="&#xF036;" d="M214-10Q159-10 138 0Q30 50 30 164L30 525Q30 642 127 684Q172 704 205 705L251 705L297 705Q309 704 322 701.50Q335 699 349 694Q374 687 374 674L374 576L369 571Q368 570 355 570Q330 570 313 576Q278 587 260 587Q179 587 174 519Q175 503 175.50 487Q176 471 176 454Q184 454 205 463Q207 464 211 465Q215 466 220 468Q242 473 263 473Q306 473 343 452Q405 417 405 344L405 144Q405 39 292 0Q262-10 214-10M220 107Q266 107 266 144L266 308Q266 345 220 345Q174 345 174 308L174 144Q174 107 220 107Z"  horiz-adv-x="442" vert-adv-y="1000"  />

      
      <glyph glyph-name="uni37" unicode="&#x37;" d="M10 635L10 663Q11 694 30 694L360 694Q380 694 380 674L380 602Q348 538 320 467.50Q292 397 267 319Q217 158 210 15L195 0L92 0L76 15Q75 17 75 42Q75 148 107 247L210 561L210 563Q210 573 205 573L25 573Q11 573 10 607L10 635Z"  horiz-adv-x="401" vert-adv-y="1000"  />

      
      <glyph glyph-name="uniF037" unicode="&#xF037;" d="M10 635L10 663Q11 694 30 694L360 694Q380 694 380 674L380 602Q348 538 320 467.50Q292 397 267 319Q217 158 210 15L195 0L92 0L76 15Q75 17 75 42Q75 148 107 247L210 561L210 563Q210 573 205 573L25 573Q11 573 10 607L10 635Z"  horiz-adv-x="401" vert-adv-y="1000"  />

      
      <glyph glyph-name="uni38" unicode="&#x38;" d="M34 517Q34 572 45 607Q68 676 153 700Q176 705 210 705Q262 705 287 694Q369 656 385 591Q387 580 388.50 561.50Q390 543 390 517Q390 446 364 411Q357 403 352 396.50Q347 390 344 386Q338 378 338 375Q338 371 344 365Q370 342 380 329Q398 306 400 262Q401 258 401 242Q401 226 401 198Q401 182 401 165.50Q401 149 400 133Q386 22 277-5Q252-10 210-10Q169-10 133 0Q39 25 25 133L25 200L25 267Q27 313 50 339Q61 349 68.50 357Q76 365 81 370Q86 377 86 383L86 386Q34 437 34 517M212 421Q256 421 256 458L256 550Q256 587 212 587Q169 587 169 550L169 458Q169 421 212 421M213 107Q261 107 261 149L261 262Q261 304 213 304Q163 304 163 262L163 149Q163 107 213 107Z"  horiz-adv-x="437" vert-adv-y="1000"  />

      
      <glyph glyph-name="uniF038" unicode="&#xF038;" d="M34 517Q34 572 45 607Q68 676 153 700Q176 705 210 705Q262 705 287 694Q369 656 385 591Q387 580 388.50 561.50Q390 543 390 517Q390 446 364 411Q357 403 352 396.50Q347 390 344 386Q338 378 338 375Q338 371 344 365Q370 342 380 329Q398 306 400 262Q401 258 401 242Q401 226 401 198Q401 182 401 165.50Q401 149 400 133Q386 22 277-5Q252-10 210-10Q169-10 133 0Q39 25 25 133L25 200L25 267Q27 313 50 339Q61 349 68.50 357Q76 365 81 370Q86 377 86 383L86 386Q34 437 34 517M212 421Q256 421 256 458L256 550Q256 587 212 587Q169 587 169 550L169 458Q169 421 212 421M213 107Q261 107 261 149L261 262Q261 304 213 304Q163 304 163 262L163 149Q163 107 213 107Z"  horiz-adv-x="437" vert-adv-y="1000"  />

      
      <glyph glyph-name="uni39" unicode="&#x39;" d="M171 220Q126 220 91 241Q30 278 30 350L30 555Q30 615 86 663Q108 682 143 694Q174 705 221 705Q272 705 297 694Q405 644 405 530L405 169Q405 52 307 10Q262-9 230-10L184-10L138-10Q90-8 66 5Q50 12 50 20L50 118L55 123Q63 125 75 125Q92 125 102 123Q132 109 148 108Q150 107 174 107Q256 107 261 175Q260 191 259.50 207Q259 223 259 240Q249 240 230 231Q228 230 224 229Q220 228 215 226Q196 220 171 220M215 349Q261 349 261 386L261 550Q261 587 215 587Q168 587 168 550L168 386Q168 349 215 349Z"  horiz-adv-x="442" vert-adv-y="1000"  />

      
      <glyph glyph-name="uniF039" unicode="&#xF039;" d="M171 220Q126 220 91 241Q30 278 30 350L30 555Q30 615 86 663Q108 682 143 694Q174 705 221 705Q272 705 297 694Q405 644 405 530L405 169Q405 52 307 10Q262-9 230-10L184-10L138-10Q90-8 66 5Q50 12 50 20L50 118L55 123Q63 125 75 125Q92 125 102 123Q132 109 148 108Q150 107 174 107Q256 107 261 175Q260 191 259.50 207Q259 223 259 240Q249 240 230 231Q228 230 224 229Q220 228 215 226Q196 220 171 220M215 349Q261 349 261 386L261 550Q261 587 215 587Q168 587 168 550L168 386Q168 349 215 349Z"  horiz-adv-x="442" vert-adv-y="1000"  />

      
      <glyph glyph-name="uni3a" unicode="&#x3a;" d="M66 427L174 427Q184 427 184 411L184 303Q184 288 169 288L61 288Q51 288 51 303L51 411Q51 427 66 427M66 138L169 138Q184 138 184 123L184 15Q184 0 169 0L66 0Q51 0 51 15L51 123Q51 138 66 138Z"  horiz-adv-x="236" vert-adv-y="1000"  />

      
      <glyph glyph-name="uniF03A" unicode="&#xF03A;" d="M66 427L174 427Q184 427 184 411L184 303Q184 288 169 288L61 288Q51 288 51 303L51 411Q51 427 66 427M66 138L169 138Q184 138 184 123L184 15Q184 0 169 0L66 0Q51 0 51 15L51 123Q51 138 66 138Z"  horiz-adv-x="236" vert-adv-y="1000"  />

      
      <glyph glyph-name="uni3b" unicode="&#x3b;" d="M66 427L169 427Q184 427 184 411L184 303Q184 288 169 288L61 288Q51 288 51 303L51 411Q51 427 66 427M97-5Q89-4 81.50-3Q74-2 66 0Q51 3 51 15L51 123Q51 138 66 138L169 138Q184 138 184 123L184-20Q184-57 138-97Q115-119 70-119Q57-119 56-118L51-113L51-66Q51-64 56-61Q97-40 97-18L97-5Z"  horiz-adv-x="236" vert-adv-y="1000"  />

      
      <glyph glyph-name="uniF03B" unicode="&#xF03B;" d="M66 427L169 427Q184 427 184 411L184 303Q184 288 169 288L61 288Q51 288 51 303L51 411Q51 427 66 427M97-5Q89-4 81.50-3Q74-2 66 0Q51 3 51 15L51 123Q51 138 66 138L169 138Q184 138 184 123L184-20Q184-57 138-97Q115-119 70-119Q57-119 56-118L51-113L51-66Q51-64 56-61Q97-40 97-18L97-5Z"  horiz-adv-x="236" vert-adv-y="1000"  />

      
      <glyph glyph-name="uni3c" unicode="&#x3c;" d="M51 337Q51 349 61 355L503 602L508 602Q519 602 519 597L519 525Q519 513 493 499L220 344Q215 341 215 337Q215 332 220 329L493 175Q519 160 519 149L519 77Q519 71 508 71Q504 71 503 72L61 319Q51 323 51 337Z"  horiz-adv-x="602" vert-adv-y="1000"  />

      
      <glyph glyph-name="uniF03C" unicode="&#xF03C;" d="M51 337Q51 349 61 355L503 602L508 602Q519 602 519 597L519 525Q519 513 493 499L220 344Q215 341 215 337Q215 332 220 329L493 175Q519 160 519 149L519 77Q519 71 508 71Q504 71 503 72L61 319Q51 323 51 337Z"  horiz-adv-x="602" vert-adv-y="1000"  />

      
      <glyph glyph-name="uni3d" unicode="&#x3d;" d="M45 483L431 483Q446 483 446 468L446 406Q446 391 431 391L45 391Q30 391 30 406L30 468Q30 483 45 483M45 298L431 298Q446 298 446 283L446 221Q446 205 431 205L45 205Q30 205 30 221L30 283Q30 298 45 298Z"  horiz-adv-x="478" vert-adv-y="1000"  />

      
      <glyph glyph-name="uniF03D" unicode="&#xF03D;" d="M45 483L431 483Q446 483 446 468L446 406Q446 391 431 391L45 391Q30 391 30 406L30 468Q30 483 45 483M45 298L431 298Q446 298 446 283L446 221Q446 205 431 205L45 205Q30 205 30 221L30 283Q30 298 45 298Z"  horiz-adv-x="478" vert-adv-y="1000"  />

      
      <glyph glyph-name="uni3e" unicode="&#x3e;" d="M380 337Q380 341 375 344L102 499Q77 512 77 525L77 597Q77 602 87 602L92 602L535 355Q545 349 545 337Q545 325 524 313L92 72Q91 71 87 71Q77 71 77 77L77 149Q77 160 102 175L375 329Q380 332 380 337Z"  horiz-adv-x="602" vert-adv-y="1000"  />

      
      <glyph glyph-name="uniF03E" unicode="&#xF03E;" d="M380 337Q380 341 375 344L102 499Q77 512 77 525L77 597Q77 602 87 602L92 602L535 355Q545 349 545 337Q545 325 524 313L92 72Q91 71 87 71Q77 71 77 77L77 149Q77 160 102 175L375 329Q380 332 380 337Z"  horiz-adv-x="602" vert-adv-y="1000"  />

      
      <glyph glyph-name="uni3f" unicode="&#x3f;" d="M66 576Q51 576 51 581L51 674Q51 679 76 689Q84 693 93 695.50Q102 698 112 700Q128 702 146.50 703.50Q165 705 185 705Q252 705 303 684Q422 634 422 503Q422 343 267 313L236 205L220 190L159 190Q148 190 138 226Q123 278 123 288Q121 298 121 342Q121 356 121.50 369Q122 382 123 396Q127 401 138 406Q155 407 171.50 408Q188 409 205 411Q277 420 277 488Q277 558 215 581Q200 587 160 587Q131 587 128 586Q111 582 97.50 579.50Q84 577 76 576L66 576M138 138L241 138Q256 138 256 123L256 15Q256 0 241 0L133 0Q123 0 123 15L123 123Q123 138 138 138Z"  horiz-adv-x="473" vert-adv-y="1000"  />

      
      <glyph glyph-name="uniF03F" unicode="&#xF03F;" d="M66 576Q51 576 51 581L51 674Q51 679 76 689Q84 693 93 695.50Q102 698 112 700Q128 702 146.50 703.50Q165 705 185 705Q252 705 303 684Q422 634 422 503Q422 343 267 313L236 205L220 190L159 190Q148 190 138 226Q123 278 123 288Q121 298 121 342Q121 356 121.50 369Q122 382 123 396Q127 401 138 406Q155 407 171.50 408Q188 409 205 411Q277 420 277 488Q277 558 215 581Q200 587 160 587Q131 587 128 586Q111 582 97.50 579.50Q84 577 76 576L66 576M138 138L241 138Q256 138 256 123L256 15Q256 0 241 0L133 0Q123 0 123 15L123 123Q123 138 138 138Z"  horiz-adv-x="473" vert-adv-y="1000"  />

      
      <glyph glyph-name="uni40" unicode="&#x40;" d="M36 350Q36 444 82 530Q176 705 391 705Q462 705 519 684Q715 614 715 406Q715 340 694 293Q639 169 517 169Q477 169 432 205Q431 206 429 206Q427 206 427 205Q416 200 408.50 196Q401 192 396 190Q394 189 389.50 187.50Q385 186 380 185Q360 179 336 179Q241 179 241 278L241 298Q243 316 247 347Q251 378 257 422Q260 449 267 463Q298 535 367 535Q384 535 406 530Q426 524 429 524Q436 524 437 525Q454 527 466 528.50Q478 530 486 530L519 530Q530 527 530 508L530 494L504 303L504 295Q504 261 532 261Q566 261 591 298Q593 301 597.50 308.50Q602 316 607 329Q618 354 618 398Q618 548 488 602Q452 618 390 618Q334 618 298 602Q212 564 180 504Q166 478 154 452Q138 419 138 352Q138 283 159 231Q221 76 396 76Q458 76 494 87Q514 94 529.50 99Q545 104 555 108L558 108Q564 108 571 102Q587 67 587 46Q587 30 550 15Q543 12 535 9.50Q527 7 519 5Q509 3 497.50 0Q486-3 473-5Q440-10 396-10Q339-10 283 5Q134 48 72 185Q36 268 36 350M349 298L349 277Q351 272 365 272Q389 272 396 293Q405 345 411 396Q412 398 412 414Q412 443 397 443Q368 443 360 396Q356 368 353 348.50Q350 329 349 319L349 298Z"  horiz-adv-x="761" vert-adv-y="1000"  />

      
      <glyph glyph-name="uniF040" unicode="&#xF040;" d="M36 350Q36 444 82 530Q176 705 391 705Q462 705 519 684Q715 614 715 406Q715 340 694 293Q639 169 517 169Q477 169 432 205Q431 206 429 206Q427 206 427 205Q416 200 408.50 196Q401 192 396 190Q394 189 389.50 187.50Q385 186 380 185Q360 179 336 179Q241 179 241 278L241 298Q243 316 247 347Q251 378 257 422Q260 449 267 463Q298 535 367 535Q384 535 406 530Q426 524 429 524Q436 524 437 525Q454 527 466 528.50Q478 530 486 530L519 530Q530 527 530 508L530 494L504 303L504 295Q504 261 532 261Q566 261 591 298Q593 301 597.50 308.50Q602 316 607 329Q618 354 618 398Q618 548 488 602Q452 618 390 618Q334 618 298 602Q212 564 180 504Q166 478 154 452Q138 419 138 352Q138 283 159 231Q221 76 396 76Q458 76 494 87Q514 94 529.50 99Q545 104 555 108L558 108Q564 108 571 102Q587 67 587 46Q587 30 550 15Q543 12 535 9.50Q527 7 519 5Q509 3 497.50 0Q486-3 473-5Q440-10 396-10Q339-10 283 5Q134 48 72 185Q36 268 36 350M349 298L349 277Q351 272 365 272Q389 272 396 293Q405 345 411 396Q412 398 412 414Q412 443 397 443Q368 443 360 396Q356 368 353 348.50Q350 329 349 319L349 298Z"  horiz-adv-x="761" vert-adv-y="1000"  />

      
      <glyph glyph-name="uni41" unicode="&#x41;" d="M5 15L5 20L154 663Q161 694 174 694L318 694Q333 694 339 669L499 15Q502 0 488 0L375 0Q361 0 355 20Q348 46 343 65Q338 84 334 97Q330 113 324 113L174 113L164 102Q159 83 153.50 63.50Q148 44 143 25Q136 0 123 0L15 0Q5 0 5 15M241 447L199 252L296 252L252 442Q250 448 243 448Q241 448 241 447Z"  horiz-adv-x="509" vert-adv-y="1000"  />

      
      <glyph glyph-name="uniF041" unicode="&#xF041;" d="M5 15L5 20L154 663Q161 694 174 694L318 694Q333 694 339 669L499 15Q502 0 488 0L375 0Q361 0 355 20Q348 46 343 65Q338 84 334 97Q330 113 324 113L174 113L164 102Q159 83 153.50 63.50Q148 44 143 25Q136 0 123 0L15 0Q5 0 5 15M241 447L199 252L296 252L252 442Q250 448 243 448Q241 448 241 447Z"  horiz-adv-x="509" vert-adv-y="1000"  />

      
      <glyph glyph-name="uni42" unicode="&#x42;" d="M494 195Q494 146 478 108Q434 0 308 0L51 0Q36 0 36 20L36 679Q36 694 51 694L288 694Q291 694 319 689Q342 684 370 674Q463 640 463 519Q463 439 386 380Q384 379 380 375Q383 372 406 360Q410 358 414 355.50Q418 353 422 350Q432 342 438.50 336.50Q445 331 447 329Q494 282 494 195M185 566L180 561L180 437L185 432Q188 431 212 431Q254 431 272 437Q314 450 314 503Q314 562 257 566Q251 567 214 567Q188 567 185 566M185 298L180 293L180 133L185 128Q188 127 216 127Q234 127 245.50 127Q257 127 262 128Q340 132 340 213Q340 270 283 293Q266 299 216 299Q188 299 185 298Z"  horiz-adv-x="530" vert-adv-y="1000"  />

      
      <glyph glyph-name="uniF042" unicode="&#xF042;" d="M494 195Q494 146 478 108Q434 0 308 0L51 0Q36 0 36 20L36 679Q36 694 51 694L288 694Q291 694 319 689Q342 684 370 674Q463 640 463 519Q463 439 386 380Q384 379 380 375Q383 372 406 360Q410 358 414 355.50Q418 353 422 350Q432 342 438.50 336.50Q445 331 447 329Q494 282 494 195M185 566L180 561L180 437L185 432Q188 431 212 431Q254 431 272 437Q314 450 314 503Q314 562 257 566Q251 567 214 567Q188 567 185 566M185 298L180 293L180 133L185 128Q188 127 216 127Q234 127 245.50 127Q257 127 262 128Q340 132 340 213Q340 270 283 293Q266 299 216 299Q188 299 185 298Z"  horiz-adv-x="530" vert-adv-y="1000"  />

      
      <glyph glyph-name="uni43" unicode="&#x43;" d="M272-10Q205-10 169 0Q46 34 46 169L46 540Q46 645 143 684Q191 704 231 705L280 705Q331 705 359 700Q385 694 385 679L385 581Q385 571 373 571L370 571Q338 579 318 581Q315 582 288 582Q190 582 190 499L190 216Q190 149 236 133Q254 128 293 128L329 128Q341 133 344 133Q348 134 372 134Q389 134 390 133L396 118L396 84L396 36Q394 24 390 15Q382-1 354-5Q343-7 334-8Q325-9 318-10L272-10Z"  horiz-adv-x="432" vert-adv-y="1000"  />

      
      <glyph glyph-name="uniF043" unicode="&#xF043;" d="M272-10Q205-10 169 0Q46 34 46 169L46 540Q46 645 143 684Q191 704 231 705L280 705Q331 705 359 700Q385 694 385 679L385 581Q385 571 373 571L370 571Q338 579 318 581Q315 582 288 582Q190 582 190 499L190 216Q190 149 236 133Q254 128 293 128L329 128Q341 133 344 133Q348 134 372 134Q389 134 390 133L396 118L396 84L396 36Q394 24 390 15Q382-1 354-5Q343-7 334-8Q325-9 318-10L272-10Z"  horiz-adv-x="432" vert-adv-y="1000"  />

      
      <glyph glyph-name="uni44" unicode="&#x44;" d="M56 694L272 694Q370 694 416 612Q458 540 458 483L458 221Q458 170 437 123Q382 0 267 0L51 0Q36 0 36 20L36 679Q36 694 56 694M252 566L180 566L180 133L185 128Q188 127 212 127Q313 127 313 221L313 473Q313 491 303 514Q293 541 272 555Q258 566 252 566Z"  horiz-adv-x="494" vert-adv-y="1000"  />

      
      <glyph glyph-name="uniF044" unicode="&#xF044;" d="M56 694L272 694Q370 694 416 612Q458 540 458 483L458 221Q458 170 437 123Q382 0 267 0L51 0Q36 0 36 20L36 679Q36 694 56 694M252 566L180 566L180 133L185 128Q188 127 212 127Q313 127 313 221L313 473Q313 491 303 514Q293 541 272 555Q258 566 252 566Z"  horiz-adv-x="494" vert-adv-y="1000"  />

      
      <glyph glyph-name="uni45" unicode="&#x45;" d="M36 679L51 694L401 694L416 679L416 586Q416 568 401 568L185 568L180 561L180 429L349 429L360 416L360 313L349 301L185 301L180 293L180 126L416 126L427 113L427 10Q427 0 411 0L51 0Q36 0 36 20L36 679Z"  horiz-adv-x="468" vert-adv-y="1000"  />

      
      <glyph glyph-name="uniF045" unicode="&#xF045;" d="M36 679L51 694L401 694L416 679L416 586Q416 568 401 568L185 568L180 561L180 429L349 429L360 416L360 313L349 301L185 301L180 293L180 126L416 126L427 113L427 10Q427 0 411 0L51 0Q36 0 36 20L36 679Z"  horiz-adv-x="468" vert-adv-y="1000"  />

      
      <glyph glyph-name="uni46" unicode="&#x46;" d="M36 679L51 694L391 694L406 679L406 581Q406 563 391 563L185 563L180 555L180 419L349 419L360 406L360 303L349 290L185 290L177 283L177 20Q177 0 159 0L51 0Q36 0 36 20L36 679Z"  horiz-adv-x="437" vert-adv-y="1000"  />

      
      <glyph glyph-name="uniF046" unicode="&#xF046;" d="M36 679L51 694L391 694L406 679L406 581Q406 563 391 563L185 563L180 555L180 419L349 419L360 406L360 303L349 290L185 290L177 283L177 20Q177 0 159 0L51 0Q36 0 36 20L36 679Z"  horiz-adv-x="437" vert-adv-y="1000"  />

      
      <glyph glyph-name="uni47" unicode="&#x47;" d="M256-10Q206-10 179-5Q78 18 45 118Q30 164 30 200L30 499Q30 638 148 684Q196 704 235 705L292 705L349 705Q379 703 405 694Q426 686 426 679L426 561Q426 556 410 550Q347 566 297 566Q253 566 235 561Q174 540 174 473L174 200Q174 117 248 117Q318 117 318 175L318 275L241 275L230 288L230 391L241 401L452 401L462 391L462 154Q462 48 359 5Q322-10 256-10Z"  horiz-adv-x="499" vert-adv-y="1000"  />

      
      <glyph glyph-name="uniF047" unicode="&#xF047;" d="M256-10Q206-10 179-5Q78 18 45 118Q30 164 30 200L30 499Q30 638 148 684Q196 704 235 705L292 705L349 705Q379 703 405 694Q426 686 426 679L426 561Q426 556 410 550Q347 566 297 566Q253 566 235 561Q174 540 174 473L174 200Q174 117 248 117Q318 117 318 175L318 275L241 275L230 288L230 391L241 401L452 401L462 391L462 154Q462 48 359 5Q322-10 256-10Z"  horiz-adv-x="499" vert-adv-y="1000"  />

      
      <glyph glyph-name="uni48" unicode="&#x48;" d="M36 679L51 694L159 694L177 679L177 458L185 452L308 452L316 463L316 679L334 694L442 694L458 679L458 15L442 0L334 0L316 15L316 303L308 308L177 308L177 20Q177 0 159 0L51 0Q36 0 36 20L36 679Z"  horiz-adv-x="499" vert-adv-y="1000"  />

      
      <glyph glyph-name="uniF048" unicode="&#xF048;" d="M36 679L51 694L159 694L177 679L177 458L185 452L308 452L316 463L316 679L334 694L442 694L458 679L458 15L442 0L334 0L316 15L316 303L308 308L177 308L177 20Q177 0 159 0L51 0Q36 0 36 20L36 679Z"  horiz-adv-x="499" vert-adv-y="1000"  />

      
      <glyph glyph-name="uni49" unicode="&#x49;" d="M36 679L51 694L159 694L174 679L174 20Q174 0 159 0L51 0Q36 0 36 20L36 679Z"  horiz-adv-x="221" vert-adv-y="1000"  />

      
      <glyph glyph-name="uniF049" unicode="&#xF049;" d="M36 679L51 694L159 694L174 679L174 20Q174 0 159 0L51 0Q36 0 36 20L36 679Z"  horiz-adv-x="221" vert-adv-y="1000"  />

      
      <glyph glyph-name="uni4a" unicode="&#x4a;" d="M151 679L169 694L277 694L293 679L293 138Q293 52 226 15Q204 4 184-2.50Q164-9 144-10L102-10Q58-10 30-5Q0 1 0 10L0 128Q0 133 12 133L15 133Q37 131 53.50 129.50Q70 128 80 128Q115 128 123 133Q151 154 151 169L151 679Z"  horiz-adv-x="339" vert-adv-y="1000"  />

      
      <glyph glyph-name="uniF04A" unicode="&#xF04A;" d="M151 679L169 694L277 694L293 679L293 138Q293 52 226 15Q204 4 184-2.50Q164-9 144-10L102-10Q58-10 30-5Q0 1 0 10L0 128Q0 133 12 133L15 133Q37 131 53.50 129.50Q70 128 80 128Q115 128 123 133Q151 154 151 169L151 679Z"  horiz-adv-x="339" vert-adv-y="1000"  />

      
      <glyph glyph-name="uni4b" unicode="&#x4b;" d="M46 679L61 694L169 694L187 679L187 478L323 674Q338 694 354 694L478 694Q488 694 488 679Q488 671 483 663L328 444L514 46Q519 33 519 23Q519 0 504 0L390 0Q377 0 365 25L231 303L226 303L187 252L187 20Q187 0 169 0L61 0L46 15L46 679Z"  horiz-adv-x="535" vert-adv-y="1000"  />

      
      <glyph glyph-name="uniF04B" unicode="&#xF04B;" d="M46 679L61 694L169 694L187 679L187 478L323 674Q338 694 354 694L478 694Q488 694 488 679Q488 671 483 663L328 444L514 46Q519 33 519 23Q519 0 504 0L390 0Q377 0 365 25L231 303L226 303L187 252L187 20Q187 0 169 0L61 0L46 15L46 679Z"  horiz-adv-x="535" vert-adv-y="1000"  />

      
      <glyph glyph-name="uni4c" unicode="&#x4c;" d="M36 679L51 694L159 694L177 679L177 126L380 126L391 113L391 15Q391 0 375 0L51 0Q36 0 36 20L36 679Z"  horiz-adv-x="411" vert-adv-y="1000"  />

      
      <glyph glyph-name="uniF04C" unicode="&#xF04C;" d="M36 679L51 694L159 694L177 679L177 126L380 126L391 113L391 15Q391 0 375 0L51 0Q36 0 36 20L36 679Z"  horiz-adv-x="411" vert-adv-y="1000"  />

      
      <glyph glyph-name="uni4d" unicode="&#x4d;" d="M36 679L51 694L164 694Q177 694 190 669L298 447Q301 442 306 442L308 442L427 679Q434 694 447 694L555 694L571 679L571 20Q571 0 555 0L447 0L429 15L429 391Q422 388 416 375Q394 320 377 279Q360 238 349 211Q335 179 303 179Q298 179 293 179Q288 179 283 180Q268 190 257 216Q220 304 185 396L177 401L177 20Q177 0 159 0L51 0Q36 0 36 20L36 679Z"  horiz-adv-x="617" vert-adv-y="1000"  />

      
      <glyph glyph-name="uniF04D" unicode="&#xF04D;" d="M36 679L51 694L164 694Q177 694 190 669L298 447Q301 442 306 442L308 442L427 679Q434 694 447 694L555 694L571 679L571 20Q571 0 555 0L447 0L429 15L429 391Q422 388 416 375Q394 320 377 279Q360 238 349 211Q335 179 303 179Q298 179 293 179Q288 179 283 180Q268 190 257 216Q220 304 185 396L177 401L177 20Q177 0 159 0L51 0Q36 0 36 20L36 679Z"  horiz-adv-x="617" vert-adv-y="1000"  />

      
      <glyph glyph-name="uni4e" unicode="&#x4e;" d="M41 679L56 694L159 694Q170 694 174 684L321 365L321 679L339 694L442 694L457 679L457 15L442 0L354 0Q343 0 339 10L177 365L177 15L159 0L56 0L41 15L41 679Z"  horiz-adv-x="504" vert-adv-y="1000"  />

      
      <glyph glyph-name="uniF04E" unicode="&#xF04E;" d="M41 679L56 694L159 694Q170 694 174 684L321 365L321 679L339 694L442 694L457 679L457 15L442 0L354 0Q343 0 339 10L177 365L177 15L159 0L56 0L41 15L41 679Z"  horiz-adv-x="504" vert-adv-y="1000"  />

      
      <glyph glyph-name="uni4f" unicode="&#x4f;" d="M241-10Q98-10 50 102Q30 153 30 195L30 499Q30 540 50 591Q84 673 158 694Q199 705 241 705Q290 705 323 694Q412 662 436 576Q452 521 452 488L452 195Q452 172 441 133Q413 31 323 0Q293-10 241-10M241 117Q307 117 307 195L307 499Q307 577 241 577Q174 577 174 499L174 195Q174 117 241 117Z"  horiz-adv-x="488" vert-adv-y="1000"  />

      
      <glyph glyph-name="uniF04F" unicode="&#xF04F;" d="M241-10Q98-10 50 102Q30 153 30 195L30 499Q30 540 50 591Q84 673 158 694Q199 705 241 705Q290 705 323 694Q412 662 436 576Q452 521 452 488L452 195Q452 172 441 133Q413 31 323 0Q293-10 241-10M241 117Q307 117 307 195L307 499Q307 577 241 577Q174 577 174 499L174 195Q174 117 241 117Z"  horiz-adv-x="488" vert-adv-y="1000"  />

      
      <glyph glyph-name="uni50" unicode="&#x50;" d="M185 277L177 272L177 20Q177 0 159 0L51 0Q36 0 36 20L36 679Q36 694 56 694L283 694Q428 694 473 566Q484 533 484 486Q484 353 360 298Q331 286 293 283Q239 278 185 277M267 566L180 566L180 416L185 411Q189 410 197 410Q205 410 216 410Q234 410 245.50 410Q257 410 262 411Q329 418 329 491Q329 566 267 566Z"  horiz-adv-x="509" vert-adv-y="1000"  />

      
      <glyph glyph-name="uniF050" unicode="&#xF050;" d="M185 277L177 272L177 20Q177 0 159 0L51 0Q36 0 36 20L36 679Q36 694 56 694L283 694Q428 694 473 566Q484 533 484 486Q484 353 360 298Q331 286 293 283Q239 278 185 277M267 566L180 566L180 416L185 411Q189 410 197 410Q205 410 216 410Q234 410 245.50 410Q257 410 262 411Q329 418 329 491Q329 566 267 566Z"  horiz-adv-x="509" vert-adv-y="1000"  />

      
      <glyph glyph-name="uni51" unicode="&#x51;" d="M239-10Q96-10 50 102Q30 153 30 195L30 499Q30 540 50 591Q84 673 158 694Q199 705 241 705Q290 705 323 694Q412 662 436 576Q452 521 452 488L452 154Q452 152 467 144Q481 137 491 132Q501 127 508 123Q513 120 513 118L513-5Q513-10 490-10Q468-10 441 5Q422 18 410 25Q401 31 389 31Q382 31 354 15Q343 8 329.50 3.50Q316-1 302-5Q279-10 239-10M241 117Q307 117 307 195L307 499Q307 577 241 577Q174 577 174 499L174 195Q174 117 241 117Z"  horiz-adv-x="525" vert-adv-y="1000"  />

      
      <glyph glyph-name="uniF051" unicode="&#xF051;" d="M239-10Q96-10 50 102Q30 153 30 195L30 499Q30 540 50 591Q84 673 158 694Q199 705 241 705Q290 705 323 694Q412 662 436 576Q452 521 452 488L452 154Q452 152 467 144Q481 137 491 132Q501 127 508 123Q513 120 513 118L513-5Q513-10 490-10Q468-10 441 5Q422 18 410 25Q401 31 389 31Q382 31 354 15Q343 8 329.50 3.50Q316-1 302-5Q279-10 239-10M241 117Q307 117 307 195L307 499Q307 577 241 577Q174 577 174 499L174 195Q174 117 241 117Z"  horiz-adv-x="525" vert-adv-y="1000"  />

      
      <glyph glyph-name="uni52" unicode="&#x52;" d="M221 288L177 288L177 20Q177 0 159 0L51 0Q36 0 36 20L36 679Q36 694 56 694L283 694Q313 694 355 679Q479 633 479 501Q479 388 380 324Q375 319 375 319Q375 316 380 303L494 46Q499 31 499 19Q499 0 488 0L365 0Q353 0 349 10L221 288M262 566L180 566L180 422L185 416L214 416Q259 416 277 422Q324 437 324 491Q324 566 262 566Z"  horiz-adv-x="519" vert-adv-y="1000"  />

      
      <glyph glyph-name="uniF052" unicode="&#xF052;" d="M221 288L177 288L177 20Q177 0 159 0L51 0Q36 0 36 20L36 679Q36 694 56 694L283 694Q313 694 355 679Q479 633 479 501Q479 388 380 324Q375 319 375 319Q375 316 380 303L494 46Q499 31 499 19Q499 0 488 0L365 0Q353 0 349 10L221 288M262 566L180 566L180 422L185 416L214 416Q259 416 277 422Q324 437 324 491Q324 566 262 566Z"  horiz-adv-x="519" vert-adv-y="1000"  />

      
      <glyph glyph-name="uni53" unicode="&#x53;" d="M46 519Q46 656 174 694Q213 705 266 705Q339 705 396 689Q421 682 421 669L421 571Q421 560 404 560Q397 560 396 561Q340 573 313 576Q310 577 284 577Q255 577 251 576Q205 573 205 532Q205 513 221 494Q228 483 257 463Q287 444 308.50 428Q330 412 344 401Q422 336 442 267Q453 228 453 188Q453 63 323 5Q294-8 251-10L211-10Q129-10 71 5Q51 10 51 20L51 138Q51 144 69 144L76 144Q86 140 94 137Q102 134 107 133Q111 132 117.50 131Q124 130 133 128Q150 126 166 124.50Q182 123 198 123Q229 123 246 128Q293 146 293 191Q293 237 241 277Q168 326 133 355Q46 426 46 519Z"  horiz-adv-x="504" vert-adv-y="1000"  />

      
      <glyph glyph-name="uniF053" unicode="&#xF053;" d="M46 519Q46 656 174 694Q213 705 266 705Q339 705 396 689Q421 682 421 669L421 571Q421 560 404 560Q397 560 396 561Q340 573 313 576Q310 577 284 577Q255 577 251 576Q205 573 205 532Q205 513 221 494Q228 483 257 463Q287 444 308.50 428Q330 412 344 401Q422 336 442 267Q453 228 453 188Q453 63 323 5Q294-8 251-10L211-10Q129-10 71 5Q51 10 51 20L51 138Q51 144 69 144L76 144Q86 140 94 137Q102 134 107 133Q111 132 117.50 131Q124 130 133 128Q150 126 166 124.50Q182 123 198 123Q229 123 246 128Q293 146 293 191Q293 237 241 277Q168 326 133 355Q46 426 46 519Z"  horiz-adv-x="504" vert-adv-y="1000"  />

      
      <glyph glyph-name="uni54" unicode="&#x54;" d="M167 555L159 563L20 563Q5 563 5 581L5 679Q5 694 15 694L463 694Q473 694 473 679L473 581Q473 563 463 563L318 563L311 555L311 15L293 0L185 0L167 15L167 555Z"  horiz-adv-x="478" vert-adv-y="1000"  />

      
      <glyph glyph-name="uniF054" unicode="&#xF054;" d="M167 555L159 563L20 563Q5 563 5 581L5 679Q5 694 15 694L463 694Q473 694 473 679L473 581Q473 563 463 563L318 563L311 555L311 15L293 0L185 0L167 15L167 555Z"  horiz-adv-x="478" vert-adv-y="1000"  />

      
      <glyph glyph-name="uni55" unicode="&#x55;" d="M46 679L61 694L169 694L187 679L187 175Q187 166 200 149Q220 123 254 123Q321 123 321 180L321 679L339 694L447 694L462 679L462 175Q462 52 349 5Q312-10 254-10L221-10Q205-9 192.50-6.50Q180-4 169 0Q46 51 46 175L46 679Z"  horiz-adv-x="519" vert-adv-y="1000"  />

      
      <glyph glyph-name="uniF055" unicode="&#xF055;" d="M46 679L61 694L169 694L187 679L187 175Q187 166 200 149Q220 123 254 123Q321 123 321 180L321 679L339 694L447 694L462 679L462 175Q462 52 349 5Q312-10 254-10L221-10Q205-9 192.50-6.50Q180-4 169 0Q46 51 46 175L46 679Z"  horiz-adv-x="519" vert-adv-y="1000"  />

      
      <glyph glyph-name="uni56" unicode="&#x56;" d="M5 663L5 694L123 694Q138 694 143 674L231 293Q233 282 239 282Q243 282 246 298L329 674Q334 694 349 694L463 694Q468 694 468 679L468 669L324 30Q316 0 303 0L164 0Q154 0 149 20L5 663Z"  horiz-adv-x="478" vert-adv-y="1000"  />

      
      <glyph glyph-name="uniF056" unicode="&#xF056;" d="M5 663L5 694L123 694Q138 694 143 674L231 293Q233 282 239 282Q243 282 246 298L329 674Q334 694 349 694L463 694Q468 694 468 679L468 669L324 30Q316 0 303 0L164 0Q154 0 149 20L5 663Z"  horiz-adv-x="478" vert-adv-y="1000"  />

      
      <glyph glyph-name="uni57" unicode="&#x57;" d="M5 674Q5 694 15 694L133 694Q147 694 154 663L246 226Q252 229 257 247L307 475L267 663Q266 665 266 674Q266 694 277 694L401 694Q408 694 411 679L493 283L499 283L586 663Q593 694 602 694L730 694L730 653L581 20Q576 0 560 0L437 0Q424 0 416 30Q405 75 393 120Q381 165 370 211Q359 165 347 120Q335 75 324 30Q315 0 303 0L169 0Q151 0 143 36L5 663L5 674Z"  horiz-adv-x="741" vert-adv-y="1000"  />

      
      <glyph glyph-name="uniF057" unicode="&#xF057;" d="M5 674Q5 694 15 694L133 694Q147 694 154 663L246 226Q252 229 257 247L307 475L267 663Q266 665 266 674Q266 694 277 694L401 694Q408 694 411 679L493 283L499 283L586 663Q593 694 602 694L730 694L730 653L581 20Q576 0 560 0L437 0Q424 0 416 30Q405 75 393 120Q381 165 370 211Q359 165 347 120Q335 75 324 30Q315 0 303 0L169 0Q151 0 143 36L5 663L5 674Z"  horiz-adv-x="741" vert-adv-y="1000"  />

      
      <glyph glyph-name="uni58" unicode="&#x58;" d="M45 680Q45 694 56 694L169 694Q182 694 195 663Q206 637 218 610Q230 583 241 555L248 549L313 679L329 694L452 694Q463 694 463 679Q463 670 457 658L329 381L478 36Q483 21 483 14Q483 0 473 0L354 0Q343 0 339 10L251 190Q250 196 243 196Q241 196 241 195L154 10Q150 0 138 0L20 0Q10 0 10 14Q10 26 15 41L159 365L159 376Q159 391 154 406Q119 489 93.50 550.50Q68 612 51 653Q45 666 45 680Z"  horiz-adv-x="499" vert-adv-y="1000"  />

      
      <glyph glyph-name="uniF058" unicode="&#xF058;" d="M45 680Q45 694 56 694L169 694Q182 694 195 663Q206 637 218 610Q230 583 241 555L248 549L313 679L329 694L452 694Q463 694 463 679Q463 670 457 658L329 381L478 36Q483 21 483 14Q483 0 473 0L354 0Q343 0 339 10L251 190Q250 196 243 196Q241 196 241 195L154 10Q150 0 138 0L20 0Q10 0 10 14Q10 26 15 41L159 365L159 376Q159 391 154 406Q119 489 93.50 550.50Q68 612 51 653Q45 666 45 680Z"  horiz-adv-x="499" vert-adv-y="1000"  />

      
      <glyph glyph-name="uni59" unicode="&#x59;" d="M5 682Q5 694 15 694L149 694Q157 694 169 663Q191 604 208 560.50Q225 517 236 488Q240 478 246 468L349 694L488 694Q499 694 499 682Q499 673 493 663L316 303L316 20Q316 0 298 0L190 0Q172 0 172 20L172 307L10 663Q5 676 5 682Z"  horiz-adv-x="504" vert-adv-y="1000"  />

      
      <glyph glyph-name="uniF059" unicode="&#xF059;" d="M5 682Q5 694 15 694L149 694Q157 694 169 663Q191 604 208 560.50Q225 517 236 488Q240 478 246 468L349 694L488 694Q499 694 499 682Q499 673 493 663L316 303L316 20Q316 0 298 0L190 0Q172 0 172 20L172 307L10 663Q5 676 5 682Z"  horiz-adv-x="504" vert-adv-y="1000"  />

      
      <glyph glyph-name="uni5a" unicode="&#x5a;" d="M45 635L45 669Q46 694 66 694L421 694Q442 694 442 674L442 586L205 138L205 136Q205 126 210 126L431 126Q451 126 452 92L452 61L452 30Q450 0 436 0L35 0Q20 0 20 10L20 108L261 566L256 573L66 573Q47 573 45 602L45 635Z"  horiz-adv-x="473" vert-adv-y="1000"  />

      
      <glyph glyph-name="uniF05A" unicode="&#xF05A;" d="M45 635L45 669Q46 694 66 694L421 694Q442 694 442 674L442 586L205 138L205 136Q205 126 210 126L431 126Q451 126 452 92L452 61L452 30Q450 0 436 0L35 0Q20 0 20 10L20 108L261 566L256 573L66 573Q47 573 45 602L45 635Z"  horiz-adv-x="473" vert-adv-y="1000"  />

      
      <glyph glyph-name="uni5b" unicode="&#x5b;" d="M252-102Q252-144 236-144L71-144Q56-144 56-128L56 679Q56 694 71 694L236 694Q252 694 252 653Q252 613 236 612Q220 610 205 609Q190 608 174 607L174-56Q190-57 205-58Q220-59 236-61Q243-63 246-66Q252-72 252-102Z"  horiz-adv-x="303" vert-adv-y="1000"  />

      
      <glyph glyph-name="uniF05B" unicode="&#xF05B;" d="M252-102Q252-144 236-144L71-144Q56-144 56-128L56 679Q56 694 71 694L236 694Q252 694 252 653Q252 613 236 612Q220 610 205 609Q190 608 174 607L174-56Q190-57 205-58Q220-59 236-61Q243-63 246-66Q252-72 252-102Z"  horiz-adv-x="303" vert-adv-y="1000"  />

      
      <glyph glyph-name="uni5c" unicode="&#x5c;" d="M0 673Q0 710 46 710Q59 710 66 694L442-102Q443-104 443-117Q443-154 401-154Q383-154 380-149L0 663L0 673Z"  horiz-adv-x="447" vert-adv-y="1000"  />

      
      <glyph glyph-name="uniF05C" unicode="&#xF05C;" d="M0 673Q0 710 46 710Q59 710 66 694L442-102Q443-104 443-117Q443-154 401-154Q383-154 380-149L0 663L0 673Z"  horiz-adv-x="447" vert-adv-y="1000"  />

      
      <glyph glyph-name="uni5d" unicode="&#x5d;" d="M46 653Q46 694 61 694L226 694Q241 694 241 679L241-128Q241-144 226-144L61-144Q46-144 46-102Q46-64 61-61Q77-59 92-58Q107-57 123-56L123 607Q107 608 92 609Q77 610 61 612Q54 614 51 617Q46 624 46 653Z"  horiz-adv-x="303" vert-adv-y="1000"  />

      
      <glyph glyph-name="uniF05D" unicode="&#xF05D;" d="M46 653Q46 694 61 694L226 694Q241 694 241 679L241-128Q241-144 226-144L61-144Q46-144 46-102Q46-64 61-61Q77-59 92-58Q107-57 123-56L123 607Q107 608 92 609Q77 610 61 612Q54 614 51 617Q46 624 46 653Z"  horiz-adv-x="303" vert-adv-y="1000"  />

      
      <glyph glyph-name="uni5e" unicode="&#x5e;" d="M46 473Q74 525 102 576Q130 627 159 679Q173 705 192 705Q211 705 226 679Q254 627 282.50 576Q311 525 339 473L339 468Q339 452 334 452L254 452L192 560L130 452L51 452Q46 452 46 468L46 473Z"  horiz-adv-x="391" vert-adv-y="1000"  />

      
      <glyph glyph-name="uniF05E" unicode="&#xF05E;" d="M46 473Q74 525 102 576Q130 627 159 679Q173 705 192 705Q211 705 226 679Q254 627 282.50 576Q311 525 339 473L339 468Q339 452 334 452L254 452L192 560L130 452L51 452Q46 452 46 468L46 473Z"  horiz-adv-x="391" vert-adv-y="1000"  />

      
      <glyph glyph-name="uni5f" unicode="&#x5f;" d="M0-216L0-154L411-154L411-216L0-216Z"  horiz-adv-x="416" vert-adv-y="1000"  />

      
      <glyph glyph-name="uniF05F" unicode="&#xF05F;" d="M0-216L0-154L411-154L411-216L0-216Z"  horiz-adv-x="416" vert-adv-y="1000"  />

      
      <glyph glyph-name="uni60" unicode="&#x60;" d="M36 731Q36 741 46 741L128 741Q139 741 149 725Q153 719 158 710Q163 701 169 689Q188 654 205 617Q206 614 206 609Q206 598 200 597Q193 596 187 596Q181 596 174 596Q141 596 118 622Q102 640 84 662Q66 684 46 710Q36 723 36 731Z"  horiz-adv-x="267" vert-adv-y="1000"  />

      
      <glyph glyph-name="uniF060" unicode="&#xF060;" d="M36 731Q36 741 46 741L128 741Q139 741 149 725Q153 719 158 710Q163 701 169 689Q188 654 205 617Q206 614 206 609Q206 598 200 597Q193 596 187 596Q181 596 174 596Q141 596 118 622Q102 640 84 662Q66 684 46 710Q36 723 36 731Z"  horiz-adv-x="267" vert-adv-y="1000"  />

      
      <glyph glyph-name="uni61" unicode="&#x61;" d="M73 432Q55 432 55 447L55 514Q55 534 81 545Q95 552 112 555Q132 560 148 561L192 561L236 561Q263 560 287 550Q375 516 375 437L375 15Q375 0 359 0L256 0Q254 0 251 5Q243 16 241 16Q237 16 236 15Q205-1 194-5Q179-10 156-10Q67-10 35 82Q25 112 25 162Q25 303 148 365Q170 376 193.50 386.50Q217 397 241 406Q242 411 242 419Q242 450 210 452Q207 453 179 453Q155 453 153 452Q128 445 108.50 440Q89 435 76 432L73 432M163 170Q163 112 202 112Q241 112 241 133L241 280Q230 280 210 262Q163 218 163 170Z"  horiz-adv-x="422" vert-adv-y="1000"  />

      
      <glyph glyph-name="uniF061" unicode="&#xF061;" d="M73 432Q55 432 55 447L55 514Q55 534 81 545Q95 552 112 555Q132 560 148 561L192 561L236 561Q263 560 287 550Q375 516 375 437L375 15Q375 0 359 0L256 0Q254 0 251 5Q243 16 241 16Q237 16 236 15Q205-1 194-5Q179-10 156-10Q67-10 35 82Q25 112 25 162Q25 303 148 365Q170 376 193.50 386.50Q217 397 241 406Q242 411 242 419Q242 450 210 452Q207 453 179 453Q155 453 153 452Q128 445 108.50 440Q89 435 76 432L73 432M163 170Q163 112 202 112Q241 112 241 133L241 280Q230 280 210 262Q163 218 163 170Z"  horiz-adv-x="422" vert-adv-y="1000"  />

      
      <glyph glyph-name="uni62" unicode="&#x62;" d="M144 0L51 0Q36 0 36 15L36 679Q36 694 51 694L149 694Q167 694 167 679L167 531Q173 531 205 550Q209 552 211.50 553Q214 554 216 555Q232 561 262 561Q355 561 380 468Q391 429 391 401L391 128Q391 110 380 72Q358-10 262-10Q228-10 205 0Q195 5 187 9Q179 13 174 15L169 15Q157 15 144 0M213 112Q257 112 257 149L257 401Q257 437 213 437Q169 437 169 401L169 149Q169 112 213 112Z"  horiz-adv-x="432" vert-adv-y="1000"  />

      
      <glyph glyph-name="uniF062" unicode="&#xF062;" d="M144 0L51 0Q36 0 36 15L36 679Q36 694 51 694L149 694Q167 694 167 679L167 531Q173 531 205 550Q209 552 211.50 553Q214 554 216 555Q232 561 262 561Q355 561 380 468Q391 429 391 401L391 128Q391 110 380 72Q358-10 262-10Q228-10 205 0Q195 5 187 9Q179 13 174 15L169 15Q157 15 144 0M213 112Q257 112 257 149L257 401Q257 437 213 437Q169 437 169 401L169 149Q169 112 213 112Z"  horiz-adv-x="432" vert-adv-y="1000"  />

      
      <glyph glyph-name="uni63" unicode="&#x63;" d="M228-10Q174-10 138 0Q30 30 30 144L30 406Q30 518 138 550Q177 561 228 561Q272 561 297 555Q328 549 328 530L328 442Q328 426 306 426Q294 426 292 427Q282 429 274 430Q266 431 261 432L235 432Q202 432 194 427Q163 405 163 380L163 169Q163 145 194 123Q202 117 237 117Q263 117 266 118Q276 120 284 121Q292 122 297 123L308 123Q328 123 328 108L328 20Q328 1 297-5Q286-7 278.50-8Q271-9 266-10L228-10Z"  horiz-adv-x="360" vert-adv-y="1000"  />

      
      <glyph glyph-name="uniF063" unicode="&#xF063;" d="M228-10Q174-10 138 0Q30 30 30 144L30 406Q30 518 138 550Q177 561 228 561Q272 561 297 555Q328 549 328 530L328 442Q328 426 306 426Q294 426 292 427Q282 429 274 430Q266 431 261 432L235 432Q202 432 194 427Q163 405 163 380L163 169Q163 145 194 123Q202 117 237 117Q263 117 266 118Q276 120 284 121Q292 122 297 123L308 123Q328 123 328 108L328 20Q328 1 297-5Q286-7 278.50-8Q271-9 266-10L228-10Z"  horiz-adv-x="360" vert-adv-y="1000"  />

      
      <glyph glyph-name="uni64" unicode="&#x64;" d="M275 536L275 679Q275 694 293 694L390 694Q406 694 406 679L406 15Q406 0 390 0L282 0Q280 0 277 5Q270 21 268 21Q262 21 251 15Q208-10 169-10Q90-10 56 72Q46 95 46 133L46 401Q46 429 56 463Q85 561 182 561Q217 561 236 550Q259 536 275 536M226 112Q272 112 272 149L272 401Q272 437 226 437Q179 437 179 401L179 149Q179 112 226 112Z"  horiz-adv-x="458" vert-adv-y="1000"  />

      
      <glyph glyph-name="uniF064" unicode="&#xF064;" d="M275 536L275 679Q275 694 293 694L390 694Q406 694 406 679L406 15Q406 0 390 0L282 0Q280 0 277 5Q270 21 268 21Q262 21 251 15Q208-10 169-10Q90-10 56 72Q46 95 46 133L46 401Q46 429 56 463Q85 561 182 561Q217 561 236 550Q259 536 275 536M226 112Q272 112 272 149L272 401Q272 437 226 437Q179 437 179 401L179 149Q179 112 226 112Z"  horiz-adv-x="458" vert-adv-y="1000"  />

      
      <glyph glyph-name="uni65" unicode="&#x65;" d="M252-10Q183-10 149 5Q36 55 36 159L36 396Q36 429 51 463Q79 527 128 545Q170 561 220 561Q262 561 298 550Q354 534 380 473Q400 428 401 391L401 324L401 257Q396 239 386 239L174 239L169 231L169 169Q169 145 205 123Q224 112 270 112Q300 112 303 113Q351 124 375 128Q377 129 384 129Q396 129 396 118L396 25Q396 12 365 5Q352 2 340.50-0.50Q329-3 319-5Q304-7 287.50-8.50Q271-10 252-10M167 350L269 350Q269 365 268.50 380Q268 395 267 411Q264 453 221 453Q172 453 169 411Q168 395 167.50 380Q167 365 167 350Z"  horiz-adv-x="437" vert-adv-y="1000"  />

      
      <glyph glyph-name="uniF065" unicode="&#xF065;" d="M252-10Q183-10 149 5Q36 55 36 159L36 396Q36 429 51 463Q79 527 128 545Q170 561 220 561Q262 561 298 550Q354 534 380 473Q400 428 401 391L401 324L401 257Q396 239 386 239L174 239L169 231L169 169Q169 145 205 123Q224 112 270 112Q300 112 303 113Q351 124 375 128Q377 129 384 129Q396 129 396 118L396 25Q396 12 365 5Q352 2 340.50-0.50Q329-3 319-5Q304-7 287.50-8.50Q271-10 252-10M167 350L269 350Q269 365 268.50 380Q268 395 267 411Q264 453 221 453Q172 453 169 411Q168 395 167.50 380Q167 365 167 350Z"  horiz-adv-x="437" vert-adv-y="1000"  />

      
      <glyph glyph-name="uni66" unicode="&#x66;" d="M50 601Q50 668 117 684Q140 690 182 690Q217 690 220 689Q256 688 256 669L256 586L200 586Q189 586 189 566Q189 550 200 545Q210 544 220.50 543Q231 542 241 540Q256 537 256 525L256 458Q256 445 241 442Q230 440 219 439Q208 438 197 437L197 15Q197 0 179 0L81 0Q63 0 63 15L63 437Q46 436 25 442Q15 445 15 452L15 530Q15 537 25 540Q43 546 61 545L61 550L61 555Q53 575 51 586Q50 587 50 601Z"  horiz-adv-x="267" vert-adv-y="1000"  />

      
      <glyph glyph-name="uniF066" unicode="&#xF066;" d="M50 601Q50 668 117 684Q140 690 182 690Q217 690 220 689Q256 688 256 669L256 586L200 586Q189 586 189 566Q189 550 200 545Q210 544 220.50 543Q231 542 241 540Q256 537 256 525L256 458Q256 445 241 442Q230 440 219 439Q208 438 197 437L197 15Q197 0 179 0L81 0Q63 0 63 15L63 437Q46 436 25 442Q15 445 15 452L15 530Q15 537 25 540Q43 546 61 545L61 550L61 555Q53 575 51 586Q50 587 50 601Z"  horiz-adv-x="267" vert-adv-y="1000"  />

      
      <glyph glyph-name="uni67" unicode="&#x67;" d="M161 15Q76 15 45 97Q30 138 30 175L30 416Q30 454 40 478Q75 561 153 561Q200 561 251 525Q255 527 256 530Q261 540 263.50 545Q266 550 266 550L374 550Q390 550 390 535L390 20Q390-106 277-138Q238-149 171-149Q140-149 116-147.50Q92-146 76-144Q40-138 40-123L40-30Q40-25 52-25L60-25Q79-30 93-32.50Q107-35 117-36L156-36L199-36Q248-33 256 5Q253 22 253 39Q252 43 246 41Q221 27 205 20Q190 15 161 15M210 138Q256 138 256 175L256 401Q256 437 210 437Q163 437 163 401L163 175Q163 138 210 138Z"  horiz-adv-x="432" vert-adv-y="1000"  />

      
      <glyph glyph-name="uniF067" unicode="&#xF067;" d="M161 15Q76 15 45 97Q30 138 30 175L30 416Q30 454 40 478Q75 561 153 561Q200 561 251 525Q255 527 256 530Q261 540 263.50 545Q266 550 266 550L374 550Q390 550 390 535L390 20Q390-106 277-138Q238-149 171-149Q140-149 116-147.50Q92-146 76-144Q40-138 40-123L40-30Q40-25 52-25L60-25Q79-30 93-32.50Q107-35 117-36L156-36L199-36Q248-33 256 5Q253 22 253 39Q252 43 246 41Q221 27 205 20Q190 15 161 15M210 138Q256 138 256 175L256 401Q256 437 210 437Q163 437 163 401L163 175Q163 138 210 138Z"  horiz-adv-x="432" vert-adv-y="1000"  />

      
      <glyph glyph-name="uni68" unicode="&#x68;" d="M214 432Q167 432 167 396L167 15Q167 0 149 0L51 0Q36 0 36 15L36 679Q36 694 51 694L149 694Q167 694 167 679L167 519Q172 519 195 535Q235 561 267 561Q315 561 339 540Q391 495 391 442L391 15Q391 0 375 0L277 0Q259 0 259 15L259 401Q259 432 214 432Z"  horiz-adv-x="432" vert-adv-y="1000"  />

      
      <glyph glyph-name="uniF068" unicode="&#xF068;" d="M214 432Q167 432 167 396L167 15Q167 0 149 0L51 0Q36 0 36 15L36 679Q36 694 51 694L149 694Q167 694 167 679L167 519Q172 519 195 535Q235 561 267 561Q315 561 339 540Q391 495 391 442L391 15Q391 0 375 0L277 0Q259 0 259 15L259 401Q259 432 214 432Z"  horiz-adv-x="432" vert-adv-y="1000"  />

      
      <glyph glyph-name="uni69" unicode="&#x69;" d="M51 710L149 710Q164 710 164 694L164 612Q164 597 149 597L51 597Q36 597 36 612L36 694Q36 710 51 710M51 550L149 550Q164 550 164 535L164 15Q164 0 149 0L51 0Q36 0 36 15L36 535Q36 550 51 550Z"  horiz-adv-x="211" vert-adv-y="1000"  />

      
      <glyph glyph-name="uniF069" unicode="&#xF069;" d="M51 710L149 710Q164 710 164 694L164 612Q164 597 149 597L51 597Q36 597 36 612L36 694Q36 710 51 710M51 550L149 550Q164 550 164 535L164 15Q164 0 149 0L51 0Q36 0 36 15L36 535Q36 550 51 550Z"  horiz-adv-x="211" vert-adv-y="1000"  />

      
      <glyph glyph-name="uni6a" unicode="&#x6a;" d="M57 710L155 710Q170 710 170 694L170 612Q170 597 155 597L57 597Q41 597 41 612L41 694Q41 710 57 710M41 46L41 535Q41 550 57 550L155 550Q173 550 173 535L173 25Q191-24 191-55Q191-125 118-144Q107-146 92.50-147.50Q78-149 59-149L26-149Q-20-146-20-128L-20-41L36-41Q52-41 52-14Q52 8 41 46Z"  horiz-adv-x="216" vert-adv-y="1000"  />

      
      <glyph glyph-name="uniF06A" unicode="&#xF06A;" d="M57 710L155 710Q170 710 170 694L170 612Q170 597 155 597L57 597Q41 597 41 612L41 694Q41 710 57 710M41 46L41 535Q41 550 57 550L155 550Q173 550 173 535L173 25Q191-24 191-55Q191-125 118-144Q107-146 92.50-147.50Q78-149 59-149L26-149Q-20-146-20-128L-20-41L36-41Q52-41 52-14Q52 8 41 46Z"  horiz-adv-x="216" vert-adv-y="1000"  />

      
      <glyph glyph-name="uni6b" unicode="&#x6b;" d="M205 236L200 241L180 221Q167 208 167 205L167 15Q167 0 149 0L51 0Q36 0 36 15L36 679Q36 694 51 694L149 694Q167 694 167 679L167 404Q174 404 185 416Q208 447 231 478Q254 509 277 540Q284 550 293 550L416 550Q427 550 427 540Q427 533 416 519L303 375Q298 367 298 357Q298 349 303 334L427 36Q432 21 432 14Q432 0 422 0L313 0L303 5Q298 7 277 56Q240 146 205 236Z"  horiz-adv-x="447" vert-adv-y="1000"  />

      
      <glyph glyph-name="uniF06B" unicode="&#xF06B;" d="M205 236L200 241L180 221Q167 208 167 205L167 15Q167 0 149 0L51 0Q36 0 36 15L36 679Q36 694 51 694L149 694Q167 694 167 679L167 404Q174 404 185 416Q208 447 231 478Q254 509 277 540Q284 550 293 550L416 550Q427 550 427 540Q427 533 416 519L303 375Q298 367 298 357Q298 349 303 334L427 36Q432 21 432 14Q432 0 422 0L313 0L303 5Q298 7 277 56Q240 146 205 236Z"  horiz-adv-x="447" vert-adv-y="1000"  />

      
      <glyph glyph-name="uni6c" unicode="&#x6c;" d="M51 694L149 694Q164 694 164 679L164 15Q164 0 149 0L51 0Q36 0 36 15L36 679Q36 694 51 694Z"  horiz-adv-x="211" vert-adv-y="1000"  />

      
      <glyph glyph-name="uniF06C" unicode="&#xF06C;" d="M51 694L149 694Q164 694 164 679L164 15Q164 0 149 0L51 0Q36 0 36 15L36 679Q36 694 51 694Z"  horiz-adv-x="211" vert-adv-y="1000"  />

      
      <glyph glyph-name="uni6d" unicode="&#x6d;" d="M172 529Q174 529 185 535Q231 561 267 561Q304 561 329 545Q348 532 360 525Q368 519 373 519L375 519Q434 561 495 561Q544 561 561 545Q617 495 617 442L617 15Q617 0 602 0L504 0Q486 0 486 15L486 401Q486 432 440 432Q393 432 393 396L393 15Q393 0 375 0L277 0Q259 0 259 15L259 401Q259 432 214 432Q167 432 167 396L167 15Q167 0 149 0L51 0Q36 0 36 15L36 535Q36 550 51 550L154 550Q157 550 164 540Q167 532 169 530Q170 529 172 529Z"  horiz-adv-x="658" vert-adv-y="1000"  />

      
      <glyph glyph-name="uniF06D" unicode="&#xF06D;" d="M172 529Q174 529 185 535Q231 561 267 561Q304 561 329 545Q348 532 360 525Q368 519 373 519L375 519Q434 561 495 561Q544 561 561 545Q617 495 617 442L617 15Q617 0 602 0L504 0Q486 0 486 15L486 401Q486 432 440 432Q393 432 393 396L393 15Q393 0 375 0L277 0Q259 0 259 15L259 401Q259 432 214 432Q167 432 167 396L167 15Q167 0 149 0L51 0Q36 0 36 15L36 535Q36 550 51 550L154 550Q157 550 164 540Q167 532 169 530Q170 529 172 529Z"  horiz-adv-x="658" vert-adv-y="1000"  />

      
      <glyph glyph-name="uni6e" unicode="&#x6e;" d="M172 529Q176 529 185 535Q229 561 267 561Q315 561 339 540Q391 495 391 442L391 15Q391 0 375 0L277 0Q259 0 259 15L259 401Q259 432 214 432Q167 432 167 396L167 15Q167 0 149 0L51 0Q36 0 36 15L36 535Q36 550 51 550L154 550Q157 550 164 540Q167 532 169 530Q170 529 172 529Z"  horiz-adv-x="432" vert-adv-y="1000"  />

      
      <glyph glyph-name="uniF06E" unicode="&#xF06E;" d="M172 529Q176 529 185 535Q229 561 267 561Q315 561 339 540Q391 495 391 442L391 15Q391 0 375 0L277 0Q259 0 259 15L259 401Q259 432 214 432Q167 432 167 396L167 15Q167 0 149 0L51 0Q36 0 36 15L36 535Q36 550 51 550L154 550Q157 550 164 540Q167 532 169 530Q170 529 172 529Z"  horiz-adv-x="432" vert-adv-y="1000"  />

      
      <glyph glyph-name="uni6f" unicode="&#x6f;" d="M212-10Q87-10 45 87Q30 123 30 154L30 396Q30 427 45 463Q72 525 122 545Q163 561 212 561Q249 561 271 555Q360 532 385 447Q395 413 395 391L395 154Q395 123 380 87Q352 23 302 5Q260-10 212-10M212 102Q261 102 261 144L261 406Q261 448 212 448Q163 448 163 406L163 144Q163 102 212 102Z"  horiz-adv-x="432" vert-adv-y="1000"  />

      
      <glyph glyph-name="uniF06F" unicode="&#xF06F;" d="M212-10Q87-10 45 87Q30 123 30 154L30 396Q30 427 45 463Q72 525 122 545Q163 561 212 561Q249 561 271 555Q360 532 385 447Q395 413 395 391L395 154Q395 123 380 87Q352 23 302 5Q260-10 212-10M212 102Q261 102 261 144L261 406Q261 448 212 448Q163 448 163 406L163 144Q163 102 212 102Z"  horiz-adv-x="432" vert-adv-y="1000"  />

      
      <glyph glyph-name="uni70" unicode="&#x70;" d="M174 529Q179 529 180 530Q199 543 211 550Q231 561 267 561Q353 561 380 478Q391 445 391 422L391 133Q391 115 380 77Q354-10 259-10Q231-10 216-5Q202 2 191.50 7Q181 12 174 15Q170 13 167 13L167-128Q167-144 149-144L51-144Q36-144 36-128L36 535Q36 550 51 550L159 550Q162 550 164 545Q171 529 174 529M213 112Q257 112 257 149L257 401Q257 437 213 437Q169 437 169 401L169 149Q169 112 213 112Z"  horiz-adv-x="437" vert-adv-y="1000"  />

      
      <glyph glyph-name="uniF070" unicode="&#xF070;" d="M174 529Q179 529 180 530Q199 543 211 550Q231 561 267 561Q353 561 380 478Q391 445 391 422L391 133Q391 115 380 77Q354-10 259-10Q231-10 216-5Q202 2 191.50 7Q181 12 174 15Q170 13 167 13L167-128Q167-144 149-144L51-144Q36-144 36-128L36 535Q36 550 51 550L159 550Q162 550 164 545Q171 529 174 529M213 112Q257 112 257 149L257 401Q257 437 213 437Q169 437 169 401L169 149Q169 112 213 112Z"  horiz-adv-x="437" vert-adv-y="1000"  />

      
      <glyph glyph-name="uni71" unicode="&#x71;" d="M164-10Q72-10 46 82Q36 118 36 149L36 422Q36 444 46 478Q69 561 164 561Q196 561 221 550Q231 545 239 541Q247 537 252 535Q253 534 257 534Q268 534 283 550L375 550Q391 550 391 535L391-128Q391-144 375-144L277-144Q259-144 259-128L259 19Q253 19 221 0Q217-2 214.50-3Q212-4 211-5Q193-10 164-10M213 112Q257 112 257 149L257 401Q257 437 213 437Q169 437 169 401L169 149Q169 112 213 112Z"  horiz-adv-x="432" vert-adv-y="1000"  />

      
      <glyph glyph-name="uniF071" unicode="&#xF071;" d="M164-10Q72-10 46 82Q36 118 36 149L36 422Q36 444 46 478Q69 561 164 561Q196 561 221 550Q231 545 239 541Q247 537 252 535Q253 534 257 534Q268 534 283 550L375 550Q391 550 391 535L391-128Q391-144 375-144L277-144Q259-144 259-128L259 19Q253 19 221 0Q217-2 214.50-3Q212-4 211-5Q193-10 164-10M213 112Q257 112 257 149L257 401Q257 437 213 437Q169 437 169 401L169 149Q169 112 213 112Z"  horiz-adv-x="432" vert-adv-y="1000"  />

      
      <glyph glyph-name="uni72" unicode="&#x72;" d="M172 524Q174 524 174 525Q184 532 192 537Q200 542 205 545Q213 549 216 550Q246 562 271 562Q286 562 288 561L298 550L298 437L288 427Q245 424 226 416Q167 390 167 339L167 15Q167 0 149 0L51 0Q36 0 36 15L36 535Q36 550 51 550L159 550Q166 550 169 525Q170 524 172 524Z"  horiz-adv-x="313" vert-adv-y="1000"  />

      
      <glyph glyph-name="uniF072" unicode="&#xF072;" d="M172 524Q174 524 174 525Q184 532 192 537Q200 542 205 545Q213 549 216 550Q246 562 271 562Q286 562 288 561L298 550L298 437L288 427Q245 424 226 416Q167 390 167 339L167 15Q167 0 149 0L51 0Q36 0 36 15L36 535Q36 550 51 550L159 550Q166 550 169 525Q170 524 172 524Z"  horiz-adv-x="313" vert-adv-y="1000"  />

      
      <glyph glyph-name="uni73" unicode="&#x73;" d="M20 411Q20 526 128 555Q148 561 194 561Q248 561 272 555Q320 545 328 514Q329 506 329 498.50Q329 491 329 483Q329 455 328 452Q327 436 318 432Q312 431 306 431Q300 431 295 431Q270 431 256 437Q229 448 211 448Q158 448 158 417Q158 395 195 365Q214 352 228 341.50Q242 331 251 324Q256 320 265 312Q274 304 287 293Q349 237 349 152Q349 25 225-5Q214-7 196.50-8.50Q179-10 154-10L112-10Q67-8 40 5Q20 16 20 25L20 118L30 123Q59 114 92 108Q118 102 149 102Q210 102 210 146Q210 170 169 205Q147 220 132 232Q117 244 107 252Q88 268 56 303Q20 344 20 411Z"  horiz-adv-x="370" vert-adv-y="1000"  />

      
      <glyph glyph-name="uniF073" unicode="&#xF073;" d="M20 411Q20 526 128 555Q148 561 194 561Q248 561 272 555Q320 545 328 514Q329 506 329 498.50Q329 491 329 483Q329 455 328 452Q327 436 318 432Q312 431 306 431Q300 431 295 431Q270 431 256 437Q229 448 211 448Q158 448 158 417Q158 395 195 365Q214 352 228 341.50Q242 331 251 324Q256 320 265 312Q274 304 287 293Q349 237 349 152Q349 25 225-5Q214-7 196.50-8.50Q179-10 154-10L112-10Q67-8 40 5Q20 16 20 25L20 118L30 123Q59 114 92 108Q118 102 149 102Q210 102 210 146Q210 170 169 205Q147 220 132 232Q117 244 107 252Q88 268 56 303Q20 344 20 411Z"  horiz-adv-x="370" vert-adv-y="1000"  />

      
      <glyph glyph-name="uni74" unicode="&#x74;" d="M53 638L66 648L159 679L168 679Q187 679 187 674L187 545Q202 544 217 543Q232 542 246 540Q262 539 262 525L262 458Q262 445 246 442Q232 440 218 439Q204 438 190 437L190 133Q190 111 210 108Q235 104 262 102L267 97L267 10Q267-9 236-10L203-10Q146-10 123 0Q53 30 53 92L53 432Q53 436 46 437Q38 439 30 440Q22 441 15 442L10 452L10 535Q10 537 20 540Q28 542 35 543Q42 544 46 545Q53 546 53 550L53 638Z"  horiz-adv-x="277" vert-adv-y="1000"  />

      
      <glyph glyph-name="uniF074" unicode="&#xF074;" d="M53 638L66 648L159 679L168 679Q187 679 187 674L187 545Q202 544 217 543Q232 542 246 540Q262 539 262 525L262 458Q262 445 246 442Q232 440 218 439Q204 438 190 437L190 133Q190 111 210 108Q235 104 262 102L267 97L267 10Q267-9 236-10L203-10Q146-10 123 0Q53 30 53 92L53 432Q53 436 46 437Q38 439 30 440Q22 441 15 442L10 452L10 535Q10 537 20 540Q28 542 35 543Q42 544 46 545Q53 546 53 550L53 638Z"  horiz-adv-x="277" vert-adv-y="1000"  />

      
      <glyph glyph-name="uni75" unicode="&#x75;" d="M159-10Q112-10 87 10Q36 55 36 108L36 535Q36 550 51 550L149 550Q167 550 167 535L167 144Q167 138 180 128Q194 117 212 117Q259 117 259 154L259 535Q259 550 277 550L375 550Q391 550 391 535L391 15Q391 0 375 0L272 0Q258 0 257 25Q253 24 247 20Q200-10 159-10Z"  horiz-adv-x="432" vert-adv-y="1000"  />

      
      <glyph glyph-name="uniF075" unicode="&#xF075;" d="M159-10Q112-10 87 10Q36 55 36 108L36 535Q36 550 51 550L149 550Q167 550 167 535L167 144Q167 138 180 128Q194 117 212 117Q259 117 259 154L259 535Q259 550 277 550L375 550Q391 550 391 535L391 15Q391 0 375 0L272 0Q258 0 257 25Q253 24 247 20Q200-10 159-10Z"  horiz-adv-x="432" vert-adv-y="1000"  />

      
      <glyph glyph-name="uni76" unicode="&#x76;" d="M136 15L3 535Q0 550 13 550L131 550Q142 550 147 530L211 218L219 226L275 519Q281 550 296 550L404 550Q414 550 414 532L414 530L286 30Q278 0 265 0L152 0L136 15Z"  horiz-adv-x="416" vert-adv-y="1000"  />

      
      <glyph glyph-name="uniF076" unicode="&#xF076;" d="M136 15L3 535Q0 550 13 550L131 550Q142 550 147 530L211 218L219 226L275 519Q281 550 296 550L404 550Q414 550 414 532L414 530L286 30Q278 0 265 0L152 0L136 15Z"  horiz-adv-x="416" vert-adv-y="1000"  />

      
      <glyph glyph-name="uni77" unicode="&#x77;" d="M121 15L3 535Q0 550 13 550L116 550Q129 550 136 525Q138 518 139 513Q140 508 141 504Q158 412 171.50 344Q185 276 193 231Q194 226 195 221Q196 216 198 211Q199 210 201 210Q206 210 208 221L255 403L229 519Q228 521 228 532Q228 550 234 550L347 550Q358 550 363 530L414 231L416 231Q425 231 430 257Q440 314 447.50 356.50Q455 399 461 427Q466 449 472 473Q478 497 486 525Q493 550 502 550L615 550Q620 550 620 538Q620 532 615 509L491 30Q484 0 471 0L363 0Q352 0 347 20L316 169Q314 180 309 180L306 180Q303 172 300.50 164Q298 156 296 149Q286 115 277 82Q268 49 260 15L244 0L136 0Q124 0 121 15Z"  horiz-adv-x="622" vert-adv-y="1000"  />

      
      <glyph glyph-name="uniF077" unicode="&#xF077;" d="M121 15L3 535Q0 550 13 550L116 550Q129 550 136 525Q138 518 139 513Q140 508 141 504Q158 412 171.50 344Q185 276 193 231Q194 226 195 221Q196 216 198 211Q199 210 201 210Q206 210 208 221L255 403L229 519Q228 521 228 532Q228 550 234 550L347 550Q358 550 363 530L414 231L416 231Q425 231 430 257Q440 314 447.50 356.50Q455 399 461 427Q466 449 472 473Q478 497 486 525Q493 550 502 550L615 550Q620 550 620 538Q620 532 615 509L491 30Q484 0 471 0L363 0Q352 0 347 20L316 169Q314 180 309 180L306 180Q303 172 300.50 164Q298 156 296 149Q286 115 277 82Q268 49 260 15L244 0L136 0Q124 0 121 15Z"  horiz-adv-x="622" vert-adv-y="1000"  />

      
      <glyph glyph-name="uni78" unicode="&#x78;" d="M19 537Q19 550 30 550L138 550Q152 550 159 535L200 447Q203 442 208 442Q213 442 216 447L262 540Q266 550 277 550L391 550Q400 550 401 540Q401 538 396 525L284 285L406 15L406 12Q406 0 396 0L282 0L267 15L210 138Q210 139 208 139Q203 139 200 133L143 15Q136 0 123 0L10 0Q5 0 5 12Q5 23 10 36L128 287L20 530Q19 531 19 537Z"  horiz-adv-x="416" vert-adv-y="1000"  />

      
      <glyph glyph-name="uniF078" unicode="&#xF078;" d="M19 537Q19 550 30 550L138 550Q152 550 159 535L200 447Q203 442 208 442Q213 442 216 447L262 540Q266 550 277 550L391 550Q400 550 401 540Q401 538 396 525L284 285L406 15L406 12Q406 0 396 0L282 0L267 15L210 138Q210 139 208 139Q203 139 200 133L143 15Q136 0 123 0L10 0Q5 0 5 12Q5 23 10 36L128 287L20 530Q19 531 19 537Z"  horiz-adv-x="416" vert-adv-y="1000"  />

      
      <glyph glyph-name="uni79" unicode="&#x79;" d="M5 530Q5 550 15 550L123 550Q135 550 138 535L190 283Q193 266 200 266Q207 266 210 283L257 535L272 550L385 550Q391 550 391 532L391 519L272-30Q252-118 164-144Q142-149 102-149Q63-149 41-144Q20-138 20-128L20-30Q20-25 35-25L41-25Q59-30 66-30Q68-31 82-31Q118-31 118-2L118 10L5 519L5 530Z"  horiz-adv-x="401" vert-adv-y="1000"  />

      
      <glyph glyph-name="uniF079" unicode="&#xF079;" d="M5 530Q5 550 15 550L123 550Q135 550 138 535L190 283Q193 266 200 266Q207 266 210 283L257 535L272 550L385 550Q391 550 391 532L391 519L272-30Q252-118 164-144Q142-149 102-149Q63-149 41-144Q20-138 20-128L20-30Q20-25 35-25L41-25Q59-30 66-30Q68-31 82-31Q118-31 118-2L118 10L5 519L5 530Z"  horiz-adv-x="401" vert-adv-y="1000"  />

      
      <glyph glyph-name="uni7a" unicode="&#x7a;" d="M39 494Q39 527 40 530Q42 550 55 550L359 550Q375 550 375 535L375 458Q375 452 354 416Q314 345 272.50 274.50Q231 204 189 133L189 115L359 115Q375 115 375 97L375 15Q375 0 359 0L40 0Q25 0 25 15L25 108Q25 112 40 138Q80 209 121.50 280.50Q163 352 205 422L205 440L55 440Q44 440 40 458Q39 467 39 476Q39 485 39 494Z"  horiz-adv-x="406" vert-adv-y="1000"  />

      
      <glyph glyph-name="uniF07A" unicode="&#xF07A;" d="M39 494Q39 527 40 530Q42 550 55 550L359 550Q375 550 375 535L375 458Q375 452 354 416Q314 345 272.50 274.50Q231 204 189 133L189 115L359 115Q375 115 375 97L375 15Q375 0 359 0L40 0Q25 0 25 15L25 108Q25 112 40 138Q80 209 121.50 280.50Q163 352 205 422L205 440L55 440Q44 440 40 458Q39 467 39 476Q39 485 39 494Z"  horiz-adv-x="406" vert-adv-y="1000"  />

      
      <glyph glyph-name="uni7b" unicode="&#x7b;" d="M228-216Q190-216 168-211Q99-192 99-118L99 185Q99 205 81 211Q53 213 45 216Q30 220 30 236L30 298Q30 313 45 319Q73 321 81 324Q99 330 99 350L99 653Q99 726 168 746Q190 751 228 751L266 751Q282 747 282 741L282 669Q282 663 271 658Q248 656 241 653Q223 646 223 633L223 329Q223 305 184 272L184 267Q191 260 197.50 252Q204 244 210 236Q223 220 223 205L223-97Q223-110 241-118Q264-120 271-123Q282-128 282-133L282-205Q282-210 266-216L228-216Z"  horiz-adv-x="339" vert-adv-y="1000"  />

      
      <glyph glyph-name="uniF07B" unicode="&#xF07B;" d="M228-216Q190-216 168-211Q99-192 99-118L99 185Q99 205 81 211Q53 213 45 216Q30 220 30 236L30 298Q30 313 45 319Q73 321 81 324Q99 330 99 350L99 653Q99 726 168 746Q190 751 228 751L266 751Q282 747 282 741L282 669Q282 663 271 658Q248 656 241 653Q223 646 223 633L223 329Q223 305 184 272L184 267Q191 260 197.50 252Q204 244 210 236Q223 220 223 205L223-97Q223-110 241-118Q264-120 271-123Q282-128 282-133L282-205Q282-210 266-216L228-216Z"  horiz-adv-x="339" vert-adv-y="1000"  />

      
      <glyph glyph-name="uni7c" unicode="&#x7c;" d="M87-278Q46-278 46-262L46 751Q46 767 87 767Q128 767 128 751L128-262Q128-278 87-278Z"  horiz-adv-x="185" vert-adv-y="1000"  />

      
      <glyph glyph-name="uniF07C" unicode="&#xF07C;" d="M87-278Q46-278 46-262L46 751Q46 767 87 767Q128 767 128 751L128-262Q128-278 87-278Z"  horiz-adv-x="185" vert-adv-y="1000"  />

      
      <glyph glyph-name="uni7d" unicode="&#x7d;" d="M66 751L105 751Q142 751 164 746Q233 726 233 653L233 350Q233 330 251 324Q274 323 287 319Q303 313 303 298L303 236Q303 220 287 216Q275 215 266 213.50Q257 212 251 211Q233 205 233 185L233-118Q233-192 164-211Q142-216 105-216L66-216Q51-210 51-205L51-133Q51-127 61-123Q84-121 92-118Q110-110 110-97L110 205Q110 220 123 236Q135 253 148 267L148 272Q110 305 110 329L110 633Q110 645 92 653Q72 654 61 658Q51 662 51 669L51 741Q51 747 66 751Z"  horiz-adv-x="339" vert-adv-y="1000"  />

      
      <glyph glyph-name="uniF07D" unicode="&#xF07D;" d="M66 751L105 751Q142 751 164 746Q233 726 233 653L233 350Q233 330 251 324Q274 323 287 319Q303 313 303 298L303 236Q303 220 287 216Q275 215 266 213.50Q257 212 251 211Q233 205 233 185L233-118Q233-192 164-211Q142-216 105-216L66-216Q51-210 51-205L51-133Q51-127 61-123Q84-121 92-118Q110-110 110-97L110 205Q110 220 123 236Q135 253 148 267L148 272Q110 305 110 329L110 633Q110 645 92 653Q72 654 61 658Q51 662 51 669L51 741Q51 747 66 751Z"  horiz-adv-x="339" vert-adv-y="1000"  />

      
      <glyph glyph-name="uni7e" unicode="&#x7e;" d="M30 316Q30 331 45 350Q59 365 86 386Q124 412 156 412Q181 412 205 401Q225 390 240.50 382.50Q256 375 266 370Q279 365 297 365Q320 365 349 401Q356 411 364 411Q372 411 390 396Q411 376 411 363Q411 328 359 288Q332 267 292 267Q266 267 251 272Q229 281 208.50 291.50Q188 302 168 313Q163 314 153 314Q133 314 127 308Q116 298 106 288Q96 278 86 267Q81 269 75.50 271.50Q70 274 66 277Q30 300 30 316Z"  horiz-adv-x="458" vert-adv-y="1000"  />

      
      <glyph glyph-name="uniF07E" unicode="&#xF07E;" d="M30 316Q30 331 45 350Q59 365 86 386Q124 412 156 412Q181 412 205 401Q225 390 240.50 382.50Q256 375 266 370Q279 365 297 365Q320 365 349 401Q356 411 364 411Q372 411 390 396Q411 376 411 363Q411 328 359 288Q332 267 292 267Q266 267 251 272Q229 281 208.50 291.50Q188 302 168 313Q163 314 153 314Q133 314 127 308Q116 298 106 288Q96 278 86 267Q81 269 75.50 271.50Q70 274 66 277Q30 300 30 316Z"  horiz-adv-x="458" vert-adv-y="1000"  />

      
      <glyph glyph-name="uni80" unicode="&#x80;" d="M15 684L25 694L467 694L478 684L478 576L467 563L313 563L308 555L308 453Q309 452 313 452Q329 457 340.50 461.50Q352 466 359 468Q381 473 414 473Q455 473 478 463Q565 424 565 334L565 123Q565 39 488 10Q446-5 400-5L375-5Q349-3 349 10L349 118Q349 124 359 128Q370 130 377.50 131Q385 132 390 133Q393 134 401 138Q421 155 421 175L421 277Q421 319 367 319Q305 319 305 272L305 20Q305 0 287 0L179 0Q161 0 161 20L161 555L153 563L20 563L15 571L15 684Z"  horiz-adv-x="617" vert-adv-y="1000"  />

      
      <glyph glyph-name="uni0402" unicode="&#x0402;" d="M15 684L25 694L467 694L478 684L478 576L467 563L313 563L308 555L308 453Q309 452 313 452Q329 457 340.50 461.50Q352 466 359 468Q381 473 414 473Q455 473 478 463Q565 424 565 334L565 123Q565 39 488 10Q446-5 400-5L375-5Q349-3 349 10L349 118Q349 124 359 128Q370 130 377.50 131Q385 132 390 133Q393 134 401 138Q421 155 421 175L421 277Q421 319 367 319Q305 319 305 272L305 20Q305 0 287 0L179 0Q161 0 161 20L161 555L153 563L20 563L15 571L15 684Z"  horiz-adv-x="617" vert-adv-y="1000"  />

      
      <glyph glyph-name="uniF080" unicode="&#xF080;" d="M15 684L25 694L467 694L478 684L478 576L467 563L313 563L308 555L308 453Q309 452 313 452Q329 457 340.50 461.50Q352 466 359 468Q381 473 414 473Q455 473 478 463Q565 424 565 334L565 123Q565 39 488 10Q446-5 400-5L375-5Q349-3 349 10L349 118Q349 124 359 128Q370 130 377.50 131Q385 132 390 133Q393 134 401 138Q421 155 421 175L421 277Q421 319 367 319Q305 319 305 272L305 20Q305 0 287 0L179 0Q161 0 161 20L161 555L153 563L20 563L15 571L15 684Z"  horiz-adv-x="617" vert-adv-y="1000"  />

      
      <glyph glyph-name="uni81" unicode="&#x81;" d="M205 880Q212 890 221 890L329 890Q340 890 340 879Q340 875 339 875L211 746L137 746Q137 766 144 777Q159 802 174 828Q189 854 205 880M51 0L36 15L36 674Q36 694 56 694L396 694Q411 694 411 684L411 581L401 568L185 568L177 561L177 15Q177 0 164 0L51 0Z"  horiz-adv-x="427" vert-adv-y="1000"  />

      
      <glyph glyph-name="uni0403" unicode="&#x0403;" d="M205 880Q212 890 221 890L329 890Q340 890 340 879Q340 875 339 875L211 746L137 746Q137 766 144 777Q159 802 174 828Q189 854 205 880M51 0L36 15L36 674Q36 694 56 694L396 694Q411 694 411 684L411 581L401 568L185 568L177 561L177 15Q177 0 164 0L51 0Z"  horiz-adv-x="427" vert-adv-y="1000"  />

      
      <glyph glyph-name="uniF081" unicode="&#xF081;" d="M205 880Q212 890 221 890L329 890Q340 890 340 879Q340 875 339 875L211 746L137 746Q137 766 144 777Q159 802 174 828Q189 854 205 880M51 0L36 15L36 674Q36 694 56 694L396 694Q411 694 411 684L411 581L401 568L185 568L177 561L177 15Q177 0 164 0L51 0Z"  horiz-adv-x="427" vert-adv-y="1000"  />

      
      <glyph glyph-name="uni201A" unicode="&#x201A;" d="M97-5Q89-4 81.50-3Q74-2 66 0Q51 3 51 15L51 123Q51 138 66 138L169 138Q184 138 184 123L184-20Q184-57 138-97Q115-119 70-119Q57-119 56-118L51-113L51-66Q51-64 56-61Q97-40 97-18L97-5Z"  horiz-adv-x="236" vert-adv-y="1000"  />

      
      <glyph glyph-name="uniF082" unicode="&#xF082;" d="M97-5Q89-4 81.50-3Q74-2 66 0Q51 3 51 15L51 123Q51 138 66 138L169 138Q184 138 184 123L184-20Q184-57 138-97Q115-119 70-119Q57-119 56-118L51-113L51-66Q51-64 56-61Q97-40 97-18L97-5Z"  horiz-adv-x="236" vert-adv-y="1000"  />

      
      <glyph glyph-name="uni0192" unicode="&#x0192;" d="M108 617Q124 654 144 689Q150 701 155 710Q160 719 164 725Q174 741 185 741L267 741Q278 741 278 731Q278 724 267 710Q247 684 229 662Q211 640 195 622Q172 596 138 596Q132 596 126 596Q120 596 113 597Q107 598 107 609Q107 614 108 617M324 429L167 429L167 15Q167 0 149 0L51 0Q36 0 36 15L36 535Q36 550 51 550L324 550Q339 550 339 530L339 452Q339 429 324 429Z"  horiz-adv-x="350" vert-adv-y="1000"  />

      
      <glyph glyph-name="uni0453" unicode="&#x0453;" d="M108 617Q124 654 144 689Q150 701 155 710Q160 719 164 725Q174 741 185 741L267 741Q278 741 278 731Q278 724 267 710Q247 684 229 662Q211 640 195 622Q172 596 138 596Q132 596 126 596Q120 596 113 597Q107 598 107 609Q107 614 108 617M324 429L167 429L167 15Q167 0 149 0L51 0Q36 0 36 15L36 535Q36 550 51 550L324 550Q339 550 339 530L339 452Q339 429 324 429Z"  horiz-adv-x="350" vert-adv-y="1000"  />

      
      <glyph glyph-name="uniF083" unicode="&#xF083;" d="M108 617Q124 654 144 689Q150 701 155 710Q160 719 164 725Q174 741 185 741L267 741Q278 741 278 731Q278 724 267 710Q247 684 229 662Q211 640 195 622Q172 596 138 596Q132 596 126 596Q120 596 113 597Q107 598 107 609Q107 614 108 617M324 429L167 429L167 15Q167 0 149 0L51 0Q36 0 36 15L36 535Q36 550 51 550L324 550Q339 550 339 530L339 452Q339 429 324 429Z"  horiz-adv-x="350" vert-adv-y="1000"  />

      
      <glyph glyph-name="uni201E" unicode="&#x201E;" d="M97-5Q89-4 81.50-3Q74-2 66 0Q51 3 51 15L51 123Q51 138 66 138L169 138Q184 138 184 123L184-20Q184-57 138-97Q115-119 70-119Q57-119 56-118L51-113L51-66Q51-64 56-61Q97-40 97-18L97-5M308-5Q300-4 292-3Q284-2 277 0Q262 3 262 15L262 123Q262 138 277 138L380 138Q395 138 395 123L395-20Q395-57 349-97Q326-119 281-119Q268-119 267-118L262-113L262-66Q262-64 267-61Q308-40 308-18L308-5Z"  horiz-adv-x="447" vert-adv-y="1000"  />

      
      <glyph glyph-name="uniF084" unicode="&#xF084;" d="M97-5Q89-4 81.50-3Q74-2 66 0Q51 3 51 15L51 123Q51 138 66 138L169 138Q184 138 184 123L184-20Q184-57 138-97Q115-119 70-119Q57-119 56-118L51-113L51-66Q51-64 56-61Q97-40 97-18L97-5M308-5Q300-4 292-3Q284-2 277 0Q262 3 262 15L262 123Q262 138 277 138L380 138Q395 138 395 123L395-20Q395-57 349-97Q326-119 281-119Q268-119 267-118L262-113L262-66Q262-64 267-61Q308-40 308-18L308-5Z"  horiz-adv-x="447" vert-adv-y="1000"  />

      
      <glyph glyph-name="uni2026" unicode="&#x2026;" d="M56 138L159 138Q174 138 174 123L174 15Q174 0 159 0L56 0Q41 0 41 15L41 123Q41 138 56 138M293 138L396 138Q411 138 411 123L411 15Q411 0 396 0L288 0Q277 0 277 15L277 123Q277 138 293 138M529 138L632 138Q648 138 648 123L648 15Q648 0 632 0L524 0Q514 0 514 15L514 123Q514 138 529 138Z"  horiz-adv-x="689" vert-adv-y="1000"  />

      
      <glyph glyph-name="uniF085" unicode="&#xF085;" d="M56 138L159 138Q174 138 174 123L174 15Q174 0 159 0L56 0Q41 0 41 15L41 123Q41 138 56 138M293 138L396 138Q411 138 411 123L411 15Q411 0 396 0L288 0Q277 0 277 15L277 123Q277 138 293 138M529 138L632 138Q648 138 648 123L648 15Q648 0 632 0L524 0Q514 0 514 15L514 123Q514 138 529 138Z"  horiz-adv-x="689" vert-adv-y="1000"  />

      
      <glyph glyph-name="uni2020" unicode="&#x2020;" d="M40 486L186 486L186 679Q186 694 199 694L297 694Q310 694 310 679L310 486L457 486L467 473L467 380L457 368L310 368L310-128Q310-144 292-144L205-144Q186-144 186-128L186 368L40 368L30 380L30 473L40 486Z"  horiz-adv-x="525" vert-adv-y="1000"  />

      
      <glyph glyph-name="uniF086" unicode="&#xF086;" d="M40 486L186 486L186 679Q186 694 199 694L297 694Q310 694 310 679L310 486L457 486L467 473L467 380L457 368L310 368L310-128Q310-144 292-144L205-144Q186-144 186-128L186 368L40 368L30 380L30 473L40 486Z"  horiz-adv-x="525" vert-adv-y="1000"  />

      
      <glyph glyph-name="uni02C6" unicode="&#x02C6;" d="M61 617Q80 642 99 666.50Q118 691 138 715Q159 741 164 741L241 741Q249 741 272 715Q313 665 349 617Q354 609 354 604Q354 599 349 597Q344 596 338.50 596Q333 596 328 596Q303 596 287 607Q263 626 245 640Q227 654 215 663Q208 669 205 669Q202 669 194 663Q171 644 153 630Q135 616 122 607Q106 596 81 596Q76 596 71 596Q66 596 61 597Q56 599 56 604Q56 609 61 617Z"  horiz-adv-x="422" vert-adv-y="1000"  />

      
      <glyph glyph-name="uniF088" unicode="&#xF088;" d="M61 617Q80 642 99 666.50Q118 691 138 715Q159 741 164 741L241 741Q249 741 272 715Q313 665 349 617Q354 609 354 604Q354 599 349 597Q344 596 338.50 596Q333 596 328 596Q303 596 287 607Q263 626 245 640Q227 654 215 663Q208 669 205 669Q202 669 194 663Q171 644 153 630Q135 616 122 607Q106 596 81 596Q76 596 71 596Q66 596 61 597Q56 599 56 604Q56 609 61 617Z"  horiz-adv-x="422" vert-adv-y="1000"  />

      
      <glyph glyph-name="uni2030" unicode="&#x2030;" d="M61 5Q61 15 66 25L436 689Q445 705 457 705Q499 705 499 670Q499 659 498 658L122-15Q116-26 102-26Q61-26 61 5M25 522Q25 554 26.50 579Q28 604 30 622Q42 700 130 700Q218 700 230 622Q236 586 236 522Q236 458 230 422Q218 344 130 344Q42 344 30 422Q28 440 26.50 465Q25 490 25 522M130 426Q148 426 148 447L148 597Q148 618 130 618Q112 618 112 597L112 447Q112 426 130 426M328 167Q328 199 329.50 224Q331 249 333 267Q345 345 434 345Q522 345 534 267Q540 231 540 167Q540 104 534 66Q522-10 434-10Q345-10 333 66Q331 85 329.50 110Q328 135 328 167M580 167Q580 231 586 267Q596 345 686 345Q774 345 786 267Q792 231 792 167Q792 104 786 66Q774-10 686-10Q596-10 586 66Q580 104 580 167M434 71Q452 71 452 92L452 241Q452 262 434 262Q416 262 416 241L416 92Q416 71 434 71M686 71Q704 71 704 92L704 241Q704 262 686 262Q668 262 668 241L668 92Q668 71 686 71Z"  horiz-adv-x="828" vert-adv-y="1000"  />

      
      <glyph glyph-name="uniF089" unicode="&#xF089;" d="M61 5Q61 15 66 25L436 689Q445 705 457 705Q499 705 499 670Q499 659 498 658L122-15Q116-26 102-26Q61-26 61 5M25 522Q25 554 26.50 579Q28 604 30 622Q42 700 130 700Q218 700 230 622Q236 586 236 522Q236 458 230 422Q218 344 130 344Q42 344 30 422Q28 440 26.50 465Q25 490 25 522M130 426Q148 426 148 447L148 597Q148 618 130 618Q112 618 112 597L112 447Q112 426 130 426M328 167Q328 199 329.50 224Q331 249 333 267Q345 345 434 345Q522 345 534 267Q540 231 540 167Q540 104 534 66Q522-10 434-10Q345-10 333 66Q331 85 329.50 110Q328 135 328 167M580 167Q580 231 586 267Q596 345 686 345Q774 345 786 267Q792 231 792 167Q792 104 786 66Q774-10 686-10Q596-10 586 66Q580 104 580 167M434 71Q452 71 452 92L452 241Q452 262 434 262Q416 262 416 241L416 92Q416 71 434 71M686 71Q704 71 704 92L704 241Q704 262 686 262Q668 262 668 241L668 92Q668 71 686 71Z"  horiz-adv-x="828" vert-adv-y="1000"  />

      
      <glyph glyph-name="uni0160" unicode="&#x0160;" d="M5 118L15 128Q101 133 102 226L113 679Q113 694 133 694L488 694Q511 694 511 679L511 452L519 447Q545 446 570.50 445Q596 444 622 442Q630 441 638 440Q646 439 653 437Q772 405 802 298Q813 259 813 213Q813 161 802 128Q758 0 617 0L391 0Q367 0 367 15L367 561L360 566L257 566L246 200Q246 192 241 164Q239 154 236.50 142.50Q234 131 231 118Q200-5 66-5L35-5Q5-4 5 15L5 118M596 313L514 313L514 138L602 138Q621 138 643 169Q659 191 659 226Q659 248 653 262Q630 313 596 313Z"  horiz-adv-x="844" vert-adv-y="1000"  />

      
      <glyph glyph-name="uni0409" unicode="&#x0409;" d="M5 118L15 128Q101 133 102 226L113 679Q113 694 133 694L488 694Q511 694 511 679L511 452L519 447Q545 446 570.50 445Q596 444 622 442Q630 441 638 440Q646 439 653 437Q772 405 802 298Q813 259 813 213Q813 161 802 128Q758 0 617 0L391 0Q367 0 367 15L367 561L360 566L257 566L246 200Q246 192 241 164Q239 154 236.50 142.50Q234 131 231 118Q200-5 66-5L35-5Q5-4 5 15L5 118M596 313L514 313L514 138L602 138Q621 138 643 169Q659 191 659 226Q659 248 653 262Q630 313 596 313Z"  horiz-adv-x="844" vert-adv-y="1000"  />

      
      <glyph glyph-name="uniF08A" unicode="&#xF08A;" d="M5 118L15 128Q101 133 102 226L113 679Q113 694 133 694L488 694Q511 694 511 679L511 452L519 447Q545 446 570.50 445Q596 444 622 442Q630 441 638 440Q646 439 653 437Q772 405 802 298Q813 259 813 213Q813 161 802 128Q758 0 617 0L391 0Q367 0 367 15L367 561L360 566L257 566L246 200Q246 192 241 164Q239 154 236.50 142.50Q234 131 231 118Q200-5 66-5L35-5Q5-4 5 15L5 118M596 313L514 313L514 138L602 138Q621 138 643 169Q659 191 659 226Q659 248 653 262Q630 313 596 313Z"  horiz-adv-x="844" vert-adv-y="1000"  />

      
      <glyph glyph-name="uni2039" unicode="&#x2039;" d="M41 298L143 488L238 488Q249 488 249 470Q249 464 248 463L163 298L248 133Q249 132 249 126Q249 108 238 108L143 108L41 298Z"  horiz-adv-x="288" vert-adv-y="1000"  />

      
      <glyph glyph-name="uniF08B" unicode="&#xF08B;" d="M41 298L143 488L238 488Q249 488 249 470Q249 464 248 463L163 298L248 133Q249 132 249 126Q249 108 238 108L143 108L41 298Z"  horiz-adv-x="288" vert-adv-y="1000"  />

      
      <glyph glyph-name="uni0152" unicode="&#x0152;" d="M36 679L51 694L159 694L177 679L177 458L185 452L316 452L316 679L334 694L442 694L460 679L460 452L468 447Q495 446 522 445Q549 444 576 442Q584 441 591.50 440Q599 439 607 437Q723 408 756 283Q762 262 762 216Q762 161 751 128Q707 0 566 0L339 0Q316 0 316 15L316 303L308 308L177 308L177 20Q177 0 159 0L51 0Q36 0 36 20L36 679M545 313L463 313L463 138L550 138Q569 138 591 169Q607 191 607 226Q607 247 602 262Q580 313 545 313Z"  horiz-adv-x="792" vert-adv-y="1000"  />

      
      <glyph glyph-name="uni040A" unicode="&#x040A;" d="M36 679L51 694L159 694L177 679L177 458L185 452L316 452L316 679L334 694L442 694L460 679L460 452L468 447Q495 446 522 445Q549 444 576 442Q584 441 591.50 440Q599 439 607 437Q723 408 756 283Q762 262 762 216Q762 161 751 128Q707 0 566 0L339 0Q316 0 316 15L316 303L308 308L177 308L177 20Q177 0 159 0L51 0Q36 0 36 20L36 679M545 313L463 313L463 138L550 138Q569 138 591 169Q607 191 607 226Q607 247 602 262Q580 313 545 313Z"  horiz-adv-x="792" vert-adv-y="1000"  />

      
      <glyph glyph-name="uniF08C" unicode="&#xF08C;" d="M36 679L51 694L159 694L177 679L177 458L185 452L316 452L316 679L334 694L442 694L460 679L460 452L468 447Q495 446 522 445Q549 444 576 442Q584 441 591.50 440Q599 439 607 437Q723 408 756 283Q762 262 762 216Q762 161 751 128Q707 0 566 0L339 0Q316 0 316 15L316 303L308 308L177 308L177 20Q177 0 159 0L51 0Q36 0 36 20L36 679M545 313L463 313L463 138L550 138Q569 138 591 169Q607 191 607 226Q607 247 602 262Q580 313 545 313Z"  horiz-adv-x="792" vert-adv-y="1000"  />

      
      <glyph glyph-name="uni8d" unicode="&#x8d;" d="M247 880Q253 890 262 890L370 890Q381 890 381 879Q381 875 380 875L252 746L178 746Q178 766 185 777Q200 802 215.50 828Q231 854 247 880M185 293L177 288L177 20Q177 0 159 0L51 0Q36 0 36 20L36 679Q36 694 56 694L154 694Q177 694 177 679L177 437L185 432L252 432Q263 432 277 452Q290 471 290 478L290 607Q290 665 355 689Q370 695 419 695Q430 695 441 695Q452 695 463 694Q483 688 483 679L483 597Q483 586 468 581Q458 580 450 579Q442 578 437 576Q424 572 424 561L424 437Q424 428 411 411Q404 401 396 392Q388 383 380 375L380 373Q380 370 386 365Q407 352 416 344Q428 335 442 319Q458 302 458 272L458 15L442 0L334 0L316 15L316 226Q316 270 272 288Q257 294 214 294Q188 294 185 293Z"  horiz-adv-x="504" vert-adv-y="1000"  />

      
      <glyph glyph-name="uni040C" unicode="&#x040C;" d="M247 880Q253 890 262 890L370 890Q381 890 381 879Q381 875 380 875L252 746L178 746Q178 766 185 777Q200 802 215.50 828Q231 854 247 880M185 293L177 288L177 20Q177 0 159 0L51 0Q36 0 36 20L36 679Q36 694 56 694L154 694Q177 694 177 679L177 437L185 432L252 432Q263 432 277 452Q290 471 290 478L290 607Q290 665 355 689Q370 695 419 695Q430 695 441 695Q452 695 463 694Q483 688 483 679L483 597Q483 586 468 581Q458 580 450 579Q442 578 437 576Q424 572 424 561L424 437Q424 428 411 411Q404 401 396 392Q388 383 380 375L380 373Q380 370 386 365Q407 352 416 344Q428 335 442 319Q458 302 458 272L458 15L442 0L334 0L316 15L316 226Q316 270 272 288Q257 294 214 294Q188 294 185 293Z"  horiz-adv-x="504" vert-adv-y="1000"  />

      
      <glyph glyph-name="uniF08D" unicode="&#xF08D;" d="M247 880Q253 890 262 890L370 890Q381 890 381 879Q381 875 380 875L252 746L178 746Q178 766 185 777Q200 802 215.50 828Q231 854 247 880M185 293L177 288L177 20Q177 0 159 0L51 0Q36 0 36 20L36 679Q36 694 56 694L154 694Q177 694 177 679L177 437L185 432L252 432Q263 432 277 452Q290 471 290 478L290 607Q290 665 355 689Q370 695 419 695Q430 695 441 695Q452 695 463 694Q483 688 483 679L483 597Q483 586 468 581Q458 580 450 579Q442 578 437 576Q424 572 424 561L424 437Q424 428 411 411Q404 401 396 392Q388 383 380 375L380 373Q380 370 386 365Q407 352 416 344Q428 335 442 319Q458 302 458 272L458 15L442 0L334 0L316 15L316 226Q316 270 272 288Q257 294 214 294Q188 294 185 293Z"  horiz-adv-x="504" vert-adv-y="1000"  />

      
      <glyph glyph-name="uni8e" unicode="&#x8e;" d="M15 684L25 694L467 694L478 684L478 576L467 563L313 563L308 555L308 453Q309 452 313 452Q329 457 340.50 461.50Q352 466 359 468Q381 473 413 473Q452 473 467 468Q565 430 565 334L565 20Q565 0 550 0L442 0L424 15L424 277Q424 290 395 313Q388 319 367 319Q305 319 305 272L305 20Q305 0 287 0L179 0Q161 0 161 20L161 555L153 563L20 563L15 571L15 684Z"  horiz-adv-x="617" vert-adv-y="1000"  />

      
      <glyph glyph-name="uni040B" unicode="&#x040B;" d="M15 684L25 694L467 694L478 684L478 576L467 563L313 563L308 555L308 453Q309 452 313 452Q329 457 340.50 461.50Q352 466 359 468Q381 473 413 473Q452 473 467 468Q565 430 565 334L565 20Q565 0 550 0L442 0L424 15L424 277Q424 290 395 313Q388 319 367 319Q305 319 305 272L305 20Q305 0 287 0L179 0Q161 0 161 20L161 555L153 563L20 563L15 571L15 684Z"  horiz-adv-x="617" vert-adv-y="1000"  />

      
      <glyph glyph-name="uniF08E" unicode="&#xF08E;" d="M15 684L25 694L467 694L478 684L478 576L467 563L313 563L308 555L308 453Q309 452 313 452Q329 457 340.50 461.50Q352 466 359 468Q381 473 413 473Q452 473 467 468Q565 430 565 334L565 20Q565 0 550 0L442 0L424 15L424 277Q424 290 395 313Q388 319 367 319Q305 319 305 272L305 20Q305 0 287 0L179 0Q161 0 161 20L161 555L153 563L20 563L15 571L15 684Z"  horiz-adv-x="617" vert-adv-y="1000"  />

      
      <glyph glyph-name="uni8f" unicode="&#x8f;" d="M46 679L61 694L169 694L187 679L187 133L195 128L321 128L321 679L339 694L447 694L462 679L462 15Q462-2 442-2L334-2L321-15L321-113Q321-128 298-128L205-128Q187-128 187-108L187-15L174-2L66-2Q46-2 46 15L46 679Z"  horiz-adv-x="519" vert-adv-y="1000"  />

      
      <glyph glyph-name="uni040F" unicode="&#x040F;" d="M46 679L61 694L169 694L187 679L187 133L195 128L321 128L321 679L339 694L447 694L462 679L462 15Q462-2 442-2L334-2L321-15L321-113Q321-128 298-128L205-128Q187-128 187-108L187-15L174-2L66-2Q46-2 46 15L46 679Z"  horiz-adv-x="519" vert-adv-y="1000"  />

      
      <glyph glyph-name="uniF08F" unicode="&#xF08F;" d="M46 679L61 694L169 694L187 679L187 133L195 128L321 128L321 679L339 694L447 694L462 679L462 15Q462-2 442-2L334-2L321-15L321-113Q321-128 298-128L205-128Q187-128 187-108L187-15L174-2L66-2Q46-2 46 15L46 679Z"  horiz-adv-x="519" vert-adv-y="1000"  />

      
      </font>
</defs>
</svg>
