<svg width="33" height="33" viewBox="0 0 33 33" fill="none" xmlns="http://www.w3.org/2000/svg">
<g opacity="0.44">
<path d="M33 16.5C33 25.6127 25.6127 33 16.5 33C7.3873 33 0 25.6127 0 16.5C0 7.3873 7.3873 0 16.5 0C25.6127 0 33 7.3873 33 16.5Z" fill="black"/>
<path d="M30 16.5C30 23.9558 23.9558 30 16.5 30C9.04416 30 3 23.9558 3 16.5C3 9.04416 9.04416 3 16.5 3C23.9558 3 30 9.04416 30 16.5Z" fill="white"/>
<path d="M27 16.5C27 22.299 22.299 27 16.5 27C10.701 27 6 22.299 6 16.5C6 10.701 10.701 6 16.5 6C22.299 6 27 10.701 27 16.5Z" fill="black"/>
<path d="M24 16.5C24 20.6421 20.6421 24 16.5 24C12.3579 24 9 20.6421 9 16.5C9 12.3579 12.3579 9 16.5 9C20.6421 9 24 12.3579 24 16.5Z" fill="white"/>
<path d="M20 16.5C20 18.433 18.433 20 16.5 20C14.567 20 13 18.433 13 16.5C13 14.567 14.567 13 16.5 13C18.433 13 20 14.567 20 16.5Z" fill="black"/>
</g>
</svg>
